<svg width="21" height="21" viewBox="0 0 21 21" fill="none" xmlns="http://www.w3.org/2000/svg">
<path d="M7.00084 10.5C7.00084 8.56817 8.56742 7.00169 10.5004 7.00169C12.4334 7.00169 14.0008 8.56817 14.0008 10.5C14.0008 12.4319 12.4334 13.9983 10.5004 13.9983C8.56742 13.9983 7.00084 12.4319 7.00084 10.5ZM5.10858 10.5C5.10858 13.4761 7.5225 15.8886 10.5004 15.8886C13.4783 15.8886 15.8923 13.4761 15.8923 10.5C15.8923 7.52388 13.4783 5.11141 10.5004 5.11141C7.5225 5.11141 5.10858 7.52388 5.10858 10.5ZM14.8457 4.89775C14.8456 5.14681 14.9194 5.39031 15.0577 5.59746C15.1961 5.8046 15.3928 5.96609 15.623 6.06149C15.8533 6.1569 16.1066 6.18194 16.351 6.13345C16.5955 6.08495 16.8201 5.96511 16.9963 5.78906C17.1726 5.61302 17.2927 5.38868 17.3415 5.14442C17.3902 4.90016 17.3653 4.64695 17.27 4.4168C17.1748 4.18666 17.0133 3.98992 16.8062 3.85146C16.599 3.71301 16.3554 3.63906 16.1062 3.63896H16.1057C15.7717 3.63911 15.4513 3.77177 15.2151 4.00779C14.9788 4.24381 14.846 4.5639 14.8457 4.89775ZM6.25825 19.042C5.2345 18.9954 4.67806 18.825 4.30828 18.681C3.81804 18.4902 3.46825 18.2631 3.10048 17.896C2.73271 17.529 2.50506 17.1797 2.31505 16.6898C2.1709 16.3204 2.00037 15.7641 1.95383 14.741C1.90293 13.6348 1.89276 13.3025 1.89276 10.5001C1.89276 7.69766 1.90377 7.3663 1.95383 6.25921C2.00046 5.23608 2.17224 4.6809 2.31505 4.31041C2.5059 3.82046 2.73322 3.47088 3.10048 3.10334C3.46774 2.73579 3.8172 2.50828 4.30828 2.31838C4.6779 2.17431 5.2345 2.00389 6.25825 1.95738C7.36508 1.9065 7.69756 1.89634 10.5004 1.89634C13.3033 1.89634 13.6361 1.90734 14.7438 1.95738C15.7676 2.00397 16.3231 2.17566 16.6938 2.31838C17.1841 2.50828 17.5339 2.73629 17.9016 3.10334C18.2694 3.47038 18.4962 3.82046 18.6871 4.31041C18.8312 4.6798 19.0017 5.23608 19.0483 6.25921C19.0992 7.3663 19.1093 7.69766 19.1093 10.5001C19.1093 13.3025 19.0992 13.6339 19.0483 14.741C19.0016 15.7641 18.8303 16.3202 18.6871 16.6898C18.4962 17.1797 18.2689 17.5293 17.9016 17.896C17.5344 18.2627 17.1841 18.4902 16.6938 18.681C16.3242 18.825 15.7676 18.9955 14.7438 19.042C13.637 19.0929 13.3045 19.103 10.5004 19.103C7.6963 19.103 7.36474 19.0929 6.25825 19.042ZM6.17131 0.0694423C5.05347 0.120318 4.28963 0.297459 3.62256 0.556873C2.93172 0.824767 2.34689 1.18417 1.76247 1.76731C1.17806 2.35045 0.819369 2.93585 0.551314 3.62628C0.291744 4.29337 0.114497 5.05633 0.0635905 6.1735C0.0118445 7.29242 0 7.65015 0 10.5C0 13.3499 0.0118445 13.7076 0.0635905 14.8265C0.114497 15.9438 0.291744 16.7067 0.551314 17.3737C0.819369 18.0638 1.17815 18.6498 1.76247 19.2327C2.3468 19.8156 2.93172 20.1745 3.62256 20.4432C4.29089 20.7026 5.05347 20.8797 6.17131 20.9306C7.29149 20.9815 7.64884 20.9941 10.5004 20.9941C13.352 20.9941 13.7099 20.9823 14.8295 20.9306C15.9474 20.8797 16.7108 20.7026 17.3783 20.4432C18.0687 20.1745 18.654 19.8159 19.2384 19.2327C19.8228 18.6496 20.1807 18.0638 20.4495 17.3737C20.7091 16.7067 20.8872 15.9437 20.9372 14.8265C20.9882 13.7068 21 13.3499 21 10.5C21 7.65015 20.9882 7.29242 20.9372 6.1735C20.8863 5.05625 20.7091 4.29295 20.4495 3.62628C20.1807 2.93627 19.8219 2.35137 19.2384 1.76731C18.6549 1.18325 18.0687 0.824767 17.3791 0.556873C16.7108 0.297459 15.9474 0.119478 14.8304 0.0694423C13.7108 0.0185668 13.3528 0.00588989 10.5013 0.00588989C7.64968 0.00588989 7.29149 0.0177273 6.17131 0.0694423Z" fill="url(#paint0_radial_66_206)"/>
<path d="M7.00084 10.5C7.00084 8.56817 8.56742 7.00169 10.5004 7.00169C12.4334 7.00169 14.0008 8.56817 14.0008 10.5C14.0008 12.4319 12.4334 13.9983 10.5004 13.9983C8.56742 13.9983 7.00084 12.4319 7.00084 10.5ZM5.10858 10.5C5.10858 13.4761 7.5225 15.8886 10.5004 15.8886C13.4783 15.8886 15.8923 13.4761 15.8923 10.5C15.8923 7.52388 13.4783 5.11141 10.5004 5.11141C7.5225 5.11141 5.10858 7.52388 5.10858 10.5ZM14.8457 4.89775C14.8456 5.14681 14.9194 5.39031 15.0577 5.59746C15.1961 5.8046 15.3928 5.96609 15.623 6.06149C15.8533 6.1569 16.1066 6.18194 16.351 6.13345C16.5955 6.08495 16.8201 5.96511 16.9963 5.78906C17.1726 5.61302 17.2927 5.38868 17.3415 5.14442C17.3902 4.90016 17.3653 4.64695 17.27 4.4168C17.1748 4.18666 17.0133 3.98992 16.8062 3.85146C16.599 3.71301 16.3554 3.63906 16.1062 3.63896H16.1057C15.7717 3.63911 15.4513 3.77177 15.2151 4.00779C14.9788 4.24381 14.846 4.5639 14.8457 4.89775ZM6.25825 19.042C5.2345 18.9954 4.67806 18.825 4.30828 18.681C3.81804 18.4902 3.46825 18.2631 3.10048 17.896C2.73271 17.529 2.50506 17.1797 2.31505 16.6898C2.1709 16.3204 2.00037 15.7641 1.95383 14.741C1.90293 13.6348 1.89276 13.3025 1.89276 10.5001C1.89276 7.69766 1.90377 7.3663 1.95383 6.25921C2.00046 5.23608 2.17224 4.6809 2.31505 4.31041C2.5059 3.82046 2.73322 3.47088 3.10048 3.10334C3.46774 2.73579 3.8172 2.50828 4.30828 2.31838C4.6779 2.17431 5.2345 2.00389 6.25825 1.95738C7.36508 1.9065 7.69756 1.89634 10.5004 1.89634C13.3033 1.89634 13.6361 1.90734 14.7438 1.95738C15.7676 2.00397 16.3231 2.17566 16.6938 2.31838C17.1841 2.50828 17.5339 2.73629 17.9016 3.10334C18.2694 3.47038 18.4962 3.82046 18.6871 4.31041C18.8312 4.6798 19.0017 5.23608 19.0483 6.25921C19.0992 7.3663 19.1093 7.69766 19.1093 10.5001C19.1093 13.3025 19.0992 13.6339 19.0483 14.741C19.0016 15.7641 18.8303 16.3202 18.6871 16.6898C18.4962 17.1797 18.2689 17.5293 17.9016 17.896C17.5344 18.2627 17.1841 18.4902 16.6938 18.681C16.3242 18.825 15.7676 18.9955 14.7438 19.042C13.637 19.0929 13.3045 19.103 10.5004 19.103C7.6963 19.103 7.36474 19.0929 6.25825 19.042ZM6.17131 0.0694423C5.05347 0.120318 4.28963 0.297459 3.62256 0.556873C2.93172 0.824767 2.34689 1.18417 1.76247 1.76731C1.17806 2.35045 0.819369 2.93585 0.551314 3.62628C0.291744 4.29337 0.114497 5.05633 0.0635905 6.1735C0.0118445 7.29242 0 7.65015 0 10.5C0 13.3499 0.0118445 13.7076 0.0635905 14.8265C0.114497 15.9438 0.291744 16.7067 0.551314 17.3737C0.819369 18.0638 1.17815 18.6498 1.76247 19.2327C2.3468 19.8156 2.93172 20.1745 3.62256 20.4432C4.29089 20.7026 5.05347 20.8797 6.17131 20.9306C7.29149 20.9815 7.64884 20.9941 10.5004 20.9941C13.352 20.9941 13.7099 20.9823 14.8295 20.9306C15.9474 20.8797 16.7108 20.7026 17.3783 20.4432C18.0687 20.1745 18.654 19.8159 19.2384 19.2327C19.8228 18.6496 20.1807 18.0638 20.4495 17.3737C20.7091 16.7067 20.8872 15.9437 20.9372 14.8265C20.9882 13.7068 21 13.3499 21 10.5C21 7.65015 20.9882 7.29242 20.9372 6.1735C20.8863 5.05625 20.7091 4.29295 20.4495 3.62628C20.1807 2.93627 19.8219 2.35137 19.2384 1.76731C18.6549 1.18325 18.0687 0.824767 17.3791 0.556873C16.7108 0.297459 15.9474 0.119478 14.8304 0.0694423C13.7108 0.0185668 13.3528 0.00588989 10.5013 0.00588989C7.64968 0.00588989 7.29149 0.0177273 6.17131 0.0694423Z" fill="url(#paint1_radial_66_206)"/>
<defs>
<radialGradient id="paint0_radial_66_206" cx="0" cy="0" r="1" gradientUnits="userSpaceOnUse" gradientTransform="translate(2.79009 21.0933) scale(27.4148 27.3984)">
<stop offset="0.09" stop-color="#337FFF"/>
<stop offset="0.78" stop-color="#3DBB95"/>
</radialGradient>
<radialGradient id="paint1_radial_66_206" cx="0" cy="0" r="1" gradientUnits="userSpaceOnUse" gradientTransform="translate(12.7361 22.0336) scale(21.6067 21.5937)">
<stop offset="0.64" stop-color="#3DBB95"/>
<stop offset="1" stop-color="#337FFF"/>
</radialGradient>
</defs>
</svg>
