<svg width="21" height="21" viewBox="0 0 21 21" fill="none" xmlns="http://www.w3.org/2000/svg">
    <path d="M7.00084 10.5C7.00084 8.56814 8.56742 7.00166 10.5004 7.00166C12.4334 7.00166 14.0008 8.56814 14.0008 10.5C14.0008 12.4318 12.4334 13.9983 10.5004 13.9983C8.56742 13.9983 7.00084 12.4318 7.00084 10.5ZM5.10858 10.5C5.10858 13.4761 7.5225 15.8886 10.5004 15.8886C13.4783 15.8886 15.8923 13.4761 15.8923 10.5C15.8923 7.52385 13.4783 5.11138 10.5004 5.11138C7.5225 5.11138 5.10858 7.52385 5.10858 10.5ZM14.8457 4.89772C14.8456 5.14678 14.9194 5.39028 15.0577 5.59743C15.1961 5.80457 15.3928 5.96606 15.623 6.06146C15.8533 6.15687 16.1066 6.18191 16.351 6.13342C16.5955 6.08492 16.8201 5.96508 16.9963 5.78903C17.1726 5.61299 17.2927 5.38865 17.3415 5.14439C17.3902 4.90013 17.3653 4.64692 17.27 4.41677C17.1748 4.18663 17.0133 3.98989 16.8062 3.85143C16.599 3.71298 16.3554 3.63902 16.1062 3.63893H16.1057C15.7717 3.63908 15.4513 3.77174 15.2151 4.00776C14.9788 4.24378 14.846 4.56387 14.8457 4.89772ZM6.25825 19.0419C5.2345 18.9954 4.67806 18.8249 4.30828 18.681C3.81804 18.4902 3.46825 18.263 3.10048 17.896C2.73271 17.5289 2.50506 17.1797 2.31505 16.6898C2.1709 16.3204 2.00037 15.7641 1.95383 14.741C1.90293 13.6348 1.89276 13.3025 1.89276 10.5001C1.89276 7.69763 1.90377 7.36627 1.95383 6.25918C2.00046 5.23605 2.17224 4.68087 2.31505 4.31038C2.5059 3.82043 2.73322 3.47085 3.10048 3.10331C3.46774 2.73576 3.8172 2.50825 4.30828 2.31834C4.6779 2.17428 5.2345 2.00386 6.25825 1.95735C7.36508 1.90647 7.69756 1.89631 10.5004 1.89631C13.3033 1.89631 13.6361 1.90731 14.7438 1.95735C15.7676 2.00394 16.3231 2.17562 16.6938 2.31834C17.1841 2.50825 17.5339 2.73626 17.9016 3.10331C18.2694 3.47035 18.4962 3.82043 18.6871 4.31038C18.8312 4.67977 19.0017 5.23605 19.0483 6.25918C19.0992 7.36627 19.1093 7.69763 19.1093 10.5001C19.1093 13.3025 19.0992 13.6339 19.0483 14.741C19.0016 15.7641 18.8303 16.3202 18.6871 16.6898C18.4962 17.1797 18.2689 17.5293 17.9016 17.896C17.5344 18.2627 17.1841 18.4902 16.6938 18.681C16.3242 18.825 15.7676 18.9954 14.7438 19.0419C13.637 19.0928 13.3045 19.103 10.5004 19.103C7.6963 19.103 7.36474 19.0928 6.25825 19.0419ZM6.17131 0.0694118C5.05347 0.120287 4.28963 0.297428 3.62256 0.556843C2.93172 0.824737 2.34689 1.18414 1.76247 1.76728C1.17806 2.35041 0.819369 2.93582 0.551314 3.62625C0.291744 4.29334 0.114497 5.0563 0.0635905 6.17347C0.0118445 7.29239 0 7.65012 0 10.5C0 13.3499 0.0118445 13.7076 0.0635905 14.8265C0.114497 15.9437 0.291744 16.7066 0.551314 17.3737C0.819369 18.0637 1.17815 18.6498 1.76247 19.2327C2.3468 19.8156 2.93172 20.1745 3.62256 20.4431C4.29089 20.7025 5.05347 20.8797 6.17131 20.9306C7.29149 20.9814 7.64884 20.9941 10.5004 20.9941C13.352 20.9941 13.7099 20.9823 14.8295 20.9306C15.9474 20.8797 16.7108 20.7025 17.3783 20.4431C18.0687 20.1745 18.654 19.8158 19.2384 19.2327C19.8228 18.6496 20.1807 18.0637 20.4495 17.3737C20.7091 16.7066 20.8872 15.9437 20.9372 14.8265C20.9882 13.7067 21 13.3499 21 10.5C21 7.65012 20.9882 7.29239 20.9372 6.17347C20.8863 5.05622 20.7091 4.29292 20.4495 3.62625C20.1807 2.93624 19.8219 2.35134 19.2384 1.76728C18.6549 1.18322 18.0687 0.824737 17.3791 0.556843C16.7108 0.297428 15.9474 0.119448 14.8304 0.0694118C13.7108 0.0185363 13.3528 0.00585938 10.5013 0.00585938C7.64968 0.00585938 7.29149 0.0176967 6.17131 0.0694118Z"
          fill="#0999D7"/>
    <path d="M7.00084 10.5C7.00084 8.56814 8.56742 7.00166 10.5004 7.00166C12.4334 7.00166 14.0008 8.56814 14.0008 10.5C14.0008 12.4318 12.4334 13.9983 10.5004 13.9983C8.56742 13.9983 7.00084 12.4318 7.00084 10.5ZM5.10858 10.5C5.10858 13.4761 7.5225 15.8886 10.5004 15.8886C13.4783 15.8886 15.8923 13.4761 15.8923 10.5C15.8923 7.52385 13.4783 5.11138 10.5004 5.11138C7.5225 5.11138 5.10858 7.52385 5.10858 10.5ZM14.8457 4.89772C14.8456 5.14678 14.9194 5.39028 15.0577 5.59743C15.1961 5.80457 15.3928 5.96606 15.623 6.06146C15.8533 6.15687 16.1066 6.18191 16.351 6.13342C16.5955 6.08492 16.8201 5.96508 16.9963 5.78903C17.1726 5.61299 17.2927 5.38865 17.3415 5.14439C17.3902 4.90013 17.3653 4.64692 17.27 4.41677C17.1748 4.18663 17.0133 3.98989 16.8062 3.85143C16.599 3.71298 16.3554 3.63902 16.1062 3.63893H16.1057C15.7717 3.63908 15.4513 3.77174 15.2151 4.00776C14.9788 4.24378 14.846 4.56387 14.8457 4.89772ZM6.25825 19.0419C5.2345 18.9954 4.67806 18.8249 4.30828 18.681C3.81804 18.4902 3.46825 18.263 3.10048 17.896C2.73271 17.5289 2.50506 17.1797 2.31505 16.6898C2.1709 16.3204 2.00037 15.7641 1.95383 14.741C1.90293 13.6348 1.89276 13.3025 1.89276 10.5001C1.89276 7.69763 1.90377 7.36627 1.95383 6.25918C2.00046 5.23605 2.17224 4.68087 2.31505 4.31038C2.5059 3.82043 2.73322 3.47085 3.10048 3.10331C3.46774 2.73576 3.8172 2.50825 4.30828 2.31834C4.6779 2.17428 5.2345 2.00386 6.25825 1.95735C7.36508 1.90647 7.69756 1.89631 10.5004 1.89631C13.3033 1.89631 13.6361 1.90731 14.7438 1.95735C15.7676 2.00394 16.3231 2.17562 16.6938 2.31834C17.1841 2.50825 17.5339 2.73626 17.9016 3.10331C18.2694 3.47035 18.4962 3.82043 18.6871 4.31038C18.8312 4.67977 19.0017 5.23605 19.0483 6.25918C19.0992 7.36627 19.1093 7.69763 19.1093 10.5001C19.1093 13.3025 19.0992 13.6339 19.0483 14.741C19.0016 15.7641 18.8303 16.3202 18.6871 16.6898C18.4962 17.1797 18.2689 17.5293 17.9016 17.896C17.5344 18.2627 17.1841 18.4902 16.6938 18.681C16.3242 18.825 15.7676 18.9954 14.7438 19.0419C13.637 19.0928 13.3045 19.103 10.5004 19.103C7.6963 19.103 7.36474 19.0928 6.25825 19.0419ZM6.17131 0.0694118C5.05347 0.120287 4.28963 0.297428 3.62256 0.556843C2.93172 0.824737 2.34689 1.18414 1.76247 1.76728C1.17806 2.35041 0.819369 2.93582 0.551314 3.62625C0.291744 4.29334 0.114497 5.0563 0.0635905 6.17347C0.0118445 7.29239 0 7.65012 0 10.5C0 13.3499 0.0118445 13.7076 0.0635905 14.8265C0.114497 15.9437 0.291744 16.7066 0.551314 17.3737C0.819369 18.0637 1.17815 18.6498 1.76247 19.2327C2.3468 19.8156 2.93172 20.1745 3.62256 20.4431C4.29089 20.7025 5.05347 20.8797 6.17131 20.9306C7.29149 20.9814 7.64884 20.9941 10.5004 20.9941C13.352 20.9941 13.7099 20.9823 14.8295 20.9306C15.9474 20.8797 16.7108 20.7025 17.3783 20.4431C18.0687 20.1745 18.654 19.8158 19.2384 19.2327C19.8228 18.6496 20.1807 18.0637 20.4495 17.3737C20.7091 16.7066 20.8872 15.9437 20.9372 14.8265C20.9882 13.7067 21 13.3499 21 10.5C21 7.65012 20.9882 7.29239 20.9372 6.17347C20.8863 5.05622 20.7091 4.29292 20.4495 3.62625C20.1807 2.93624 19.8219 2.35134 19.2384 1.76728C18.6549 1.18322 18.0687 0.824737 17.3791 0.556843C16.7108 0.297428 15.9474 0.119448 14.8304 0.0694118C13.7108 0.0185363 13.3528 0.00585938 10.5013 0.00585938C7.64968 0.00585938 7.29149 0.0176967 6.17131 0.0694118Z"
          fill="#0999D7"/>
</svg>
