<svg width="21" height="21" viewBox="0 0 21 21" fill="none" xmlns="http://www.w3.org/2000/svg">
<path d="M0 1.50429C0 0.673969 0.695133 0 1.55203 0H19.448C20.3052 0 21 0.673969 21 1.50429V19.496C21 20.3265 20.3052 21 19.448 21H1.55203C0.695215 21 0 20.3266 0 19.4962V1.50404V1.50429Z" fill="#0A99D5"/>
<path d="M6.38151 17.5743V8.12002H3.23906V17.5743H6.38184H6.38151ZM4.81094 6.82943C5.90655 6.82943 6.58864 6.10345 6.58864 5.19618C6.56813 4.26825 5.90655 3.56253 4.83178 3.56253C3.75627 3.56253 3.05383 4.26825 3.05383 5.1961C3.05383 6.10337 3.73568 6.82934 4.79035 6.82934H4.8107L4.81094 6.82943ZM8.1209 17.5743H11.2631V12.2952C11.2631 12.013 11.2836 11.7301 11.3666 11.5285C11.5937 10.9637 12.1107 10.3791 12.979 10.3791C14.1158 10.3791 14.5709 11.246 14.5709 12.5171V17.5743H17.713V12.1535C17.713 9.24968 16.1629 7.89837 14.0955 7.89837C12.4005 7.89837 11.656 8.84575 11.2424 9.49101H11.2634V8.12035H8.12107C8.16208 9.00727 8.12082 17.5746 8.12082 17.5746L8.1209 17.5743Z" fill="white"/>
</svg>
