<svg width="156" height="29" viewBox="0 0 156 29" fill="none" xmlns="http://www.w3.org/2000/svg">
    <g clip-path="url(#clip0_53_1398)">
        <path fill-rule="evenodd" clip-rule="evenodd"
              d="M48.1384 18.9032H48.0566C47.6692 19.3132 47.1787 19.4557 46.6491 19.4557C45.6291 19.4557 45.0159 18.7802 45.0159 17.6343V12.742H48.0975V11.2271H45.0159V8.62875H43.587L43.3222 11.2271H41.5254V12.742H43.2813V17.6753C43.2813 19.8246 44.4046 21.0116 46.4039 21.0116C47.1378 21.0116 47.7101 20.8886 48.1384 20.6641V18.9032ZM54.7708 11.0241C53.3225 11.0241 52.3219 11.6176 51.7495 12.7635H51.7087L51.6678 11.2291H50.198V20.8066H51.9325V16.4473C51.9325 13.9505 52.8105 12.6815 54.6462 12.6815C55.2186 12.6815 55.7286 12.8455 56.1355 13.1325H56.2172V11.3931C55.8902 11.1881 55.4016 11.0241 54.7689 11.0241H54.7708ZM67.0157 20.8066V11.2291H65.5459L65.4856 12.7635H65.4447C64.7302 11.6781 63.424 11.0241 61.7498 11.0241C58.9738 11.0241 56.9745 13.111 56.9745 16.0178C56.9745 18.9247 58.9738 21.0116 61.7498 21.0116C63.424 21.0116 64.7302 20.3576 65.4447 19.2917H65.4856L65.5459 20.8066H67.0157ZM62.036 19.4557C60.0776 19.4557 58.7305 18.0442 58.7305 16.0178C58.7305 13.9915 60.0776 12.58 62.036 12.58C63.9944 12.58 65.3415 13.9915 65.3415 16.0178C65.3415 18.0442 63.9749 19.4557 62.036 19.4557ZM79.1379 20.8066V6.48132H77.4033V12.4785H77.3625C76.6071 11.5571 75.4235 11.0261 73.872 11.0261C71.096 11.0261 69.0967 13.113 69.0967 16.0198C69.0967 18.9266 71.096 21.0135 73.872 21.0135C75.5462 21.0135 76.8524 20.3595 77.5669 19.2936H77.6078L77.6681 20.8086H79.1379V20.8066ZM74.1582 19.4557C72.1998 19.4557 70.8526 18.0442 70.8526 16.0178C70.8526 13.9915 72.1998 12.58 74.1582 12.58C76.1166 12.58 77.4637 13.9915 77.4637 16.0178C77.4637 18.0442 76.0971 19.4557 74.1582 19.4557ZM91.0362 16.5898V15.6274C91.0362 12.8436 89.1381 11.0222 86.1986 11.0222C83.2591 11.0222 81.2189 13.0895 81.2189 16.0159C81.2189 18.9422 83.4031 21.0096 86.7709 21.0096C88.2602 21.0096 89.5664 20.5997 90.4249 19.9047V18.1438H90.3432C89.4457 19.0028 88.2212 19.4537 86.8118 19.4537C84.649 19.4537 83.2201 18.3683 82.9748 16.5879H91.0362V16.5898ZM86.22 12.5781C87.9545 12.5781 89.179 13.5815 89.4243 15.1354H82.9748C83.3019 13.601 84.5867 12.5781 86.22 12.5781ZM104.363 11.0222C102.607 11.0222 101.506 11.6371 100.914 12.865H100.873C100.301 11.6566 99.2202 11.0222 97.7913 11.0222C96.2806 11.0222 95.2411 11.5961 94.6474 12.6191H94.6065L94.5461 11.2271H93.0978V20.8046H94.8323V15.7289C94.8323 13.7025 95.7103 12.5761 97.363 12.5761C98.8931 12.5761 99.6893 13.5385 99.6893 15.36V20.8046H101.424V15.8304C101.424 13.7025 102.302 12.5761 103.935 12.5761C105.446 12.5761 106.261 13.5385 106.261 15.36V20.8046H107.996V15.1764C107.996 12.5156 106.69 11.0222 104.363 11.0222ZM119.875 20.8046V11.2291H118.405L118.345 12.7635H118.304C117.589 11.6781 116.283 11.0241 114.609 11.0241C111.833 11.0241 109.834 13.111 109.834 16.0178C109.834 18.9247 111.833 21.0116 114.609 21.0116C116.283 21.0116 117.589 20.3576 118.304 19.2917H118.345L118.405 20.8066H119.875V20.8046ZM114.895 19.4537C112.937 19.4537 111.59 18.0423 111.59 16.0159C111.59 13.9895 112.937 12.5781 114.895 12.5781C116.854 12.5781 118.201 13.9895 118.201 16.0159C118.201 18.0423 116.834 19.4537 114.895 19.4537ZM125.752 11.0222C123.527 11.0222 122.057 12.2501 122.057 14.0715C122.057 15.8929 122.976 16.6094 125.485 16.7733C127.2 16.8749 127.73 17.2438 127.73 18.0228C127.73 18.9032 126.914 19.4557 125.608 19.4557C124.078 19.4557 122.894 19.0047 122.117 18.1262H122.036V20.0101C122.832 20.6641 124.076 21.0135 125.668 21.0135C127.995 21.0135 129.443 19.8676 129.443 18.0247C129.443 16.1818 128.483 15.2623 125.871 15.1179C124.278 15.0359 123.768 14.7079 123.768 14.0129C123.768 13.154 124.564 12.58 125.789 12.58C127.115 12.58 128.137 12.9275 128.789 13.603H128.871V11.7601C128.156 11.2896 127.013 11.0241 125.748 11.0241L125.752 11.0222ZM136.753 18.9012H136.671C136.284 19.3112 135.793 19.4537 135.264 19.4537C134.244 19.4537 133.63 18.7783 133.63 17.6323V12.7401H136.712V11.2252H133.63V8.6268H132.201L131.937 11.2252H130.14V12.7401H131.896V17.6733C131.896 19.8227 133.019 21.0096 135.018 21.0096C135.752 21.0096 136.325 20.8866 136.753 20.6621V18.9012ZM147.917 16.5879V15.6255C147.917 12.8416 146.019 11.0202 143.08 11.0202C140.14 11.0202 138.1 13.0876 138.1 16.0139C138.1 18.9403 140.284 21.0077 143.652 21.0077C145.141 21.0077 146.447 20.5977 147.306 19.9027V18.1418H147.224C146.327 19.0008 145.102 19.4518 143.693 19.4518C141.53 19.4518 140.101 18.3663 139.856 16.5859H147.917V16.5879ZM143.101 12.5761C144.836 12.5761 146.06 13.5795 146.305 15.1335H139.856C140.183 13.5991 141.468 12.5761 143.101 12.5761ZM154.55 11.0202C153.101 11.0202 152.101 11.6137 151.528 12.7596H151.488L151.447 11.2252H149.977V20.8027H151.711V16.4434C151.711 13.9466 152.589 12.6776 154.425 12.6776C154.997 12.6776 155.507 12.8416 155.914 13.1286H155.996V11.3892C155.669 11.1842 155.18 11.0202 154.548 11.0202H154.55Z"
              fill="#34373A"/>
        <path fill-rule="evenodd" clip-rule="evenodd"
              d="M0.630755 3.61352L0.628808 3.60961L0.624915 3.60571L0.621021 3.6018L0.619075 3.5979L0.615181 3.594L0.611288 3.59009L0.607394 3.58619L0.603501 3.58228L0.599607 3.57838L0.595714 3.57447L0.591821 3.57057L0.587927 3.56666L0.584034 3.56276L0.58014 3.55886L0.578194 3.55495L0.5743 3.55105L0.572353 3.54714L0.566513 3.53933L0.56262 3.53348H0.560673V3.52957L0.55678 3.52567L0.552886 3.52176L0.548993 3.51591L0.545099 3.512L0.541206 3.50615L0.537313 3.50224L0.533419 3.49834L0.529526 3.49443L0.525632 3.49053L0.521739 3.48662L0.517846 3.48272L0.513952 3.47881L0.510059 3.47491L0.506165 3.47101L0.504218 3.4671L0.500325 3.4632L0.498378 3.45929L0.494485 3.45539V3.45148L0.490591 3.44758H0.488645V3.44368L0.484751 3.43977V3.43587H0.480858L0.476964 3.43196V3.42806H0.473071L0.469178 3.42415L0.465284 3.42025L0.453604 3.40463L0.44971 3.40073L0.445817 3.39682L0.441924 3.39292L0.43803 3.38901L0.434137 3.38511L0.43219 3.3812L0.428297 3.3773L0.424403 3.3734L0.42051 3.36949V3.36363L0.416616 3.35973V3.35583L0.412723 3.35192V3.34802H0.408829L0.404936 3.34216V3.33826H0.401043L0.397149 3.3324V3.3285H0.393256L0.389362 3.32264C0.330961 3.23674 0.280346 3.14694 0.233625 3.05128L0.231678 3.04543C0.216105 3.01419 0.202478 2.981 0.188851 2.94782C0.17717 2.91658 0.16549 2.8873 0.15381 2.85606C0.132396 2.79554 0.112929 2.73307 0.0973551 2.6706C0.0876215 2.62961 0.0778879 2.59056 0.0701011 2.54957C0.0623142 2.50662 0.0545273 2.46367 0.0486872 2.41877C0.0389536 2.34068 0.0331135 2.26259 0.0311667 2.18255C0.0311667 2.16303 0.0311667 2.14351 0.0311667 2.12594C0.0311667 2.07323 0.0311667 2.02247 0.0370069 1.96976C0.0409003 1.90534 0.0486872 1.84092 0.0584208 1.77649V1.77259V1.76868V1.76478V1.76087V1.75697V1.75307V1.74916V1.74526V1.74135V1.73354V1.72964V1.72574V1.71207H0.0603675V1.70817V1.70426V1.70036V1.69645V1.69255C0.0662076 1.66326 0.0720478 1.63398 0.0798346 1.6047V1.59689L0.0817813 1.58908V1.58518V1.58127H0.0759412V1.57932V1.57346V1.56956V1.56565V1.56175V1.5598V1.55785V1.55394V1.55004V1.54613V1.54418V1.54223V1.53637V1.53442V1.53247V1.52856V1.52466V1.52075C0.083728 1.49342 0.0934616 1.46609 0.101248 1.43876L0.103195 1.4329L0.107089 1.42119V1.41924V1.41729L0.110982 1.40557L0.114875 1.39386H0.134343L0.140183 1.37629V1.37434C0.14797 1.35286 0.155757 1.33334 0.163543 1.31187L0.175224 1.28649C0.196638 1.23573 0.219998 1.18888 0.243359 1.14007V1.13617V1.13226V1.12836V1.12446V1.12055V1.11665V1.11274V1.10884V1.10493V1.10103V1.09713V1.09322V1.08932V1.08541L0.249199 1.0737V1.06979L0.253092 1.06199C0.266719 1.03856 0.2784 1.01708 0.292027 0.995611V0.991706V0.987802V0.98585V0.983897V0.979993H0.29592V0.976089V0.974136V0.972184V0.970232V0.96828V0.964375V0.962423V0.960471V0.958519V0.956567V0.952662V0.95071V0.948758V0.946805V0.944853V0.940949V0.938997V0.937044V0.935092V0.93314C0.323174 0.890192 0.354321 0.849195 0.385469 0.808199C0.401043 0.788677 0.416616 0.769155 0.43219 0.749633C0.465284 0.710589 0.498378 0.675449 0.533419 0.638357V0.634453V0.630548L0.535366 0.626644C0.547046 0.614931 0.55678 0.60517 0.56846 0.593456H0.570407L0.576247 0.585648C0.593767 0.568078 0.613235 0.55246 0.630755 0.53489C0.667742 0.501703 0.706677 0.470468 0.745611 0.439232C0.805959 0.392379 0.870201 0.349431 0.934442 0.312339C0.979217 0.28696 1.02399 0.261582 1.07071 0.240107C1.09407 0.228394 1.11938 0.218633 1.14274 0.20692L1.15442 0.201063H1.15637H1.16026L1.16221 0.199111H1.16415H1.1661H1.16805H1.16999H1.17194L1.17584 0.197159H1.17778L1.18168 0.195207H1.18362H1.18557C1.24008 0.173732 1.29458 0.156163 1.35104 0.142497H1.35299C1.40944 0.126879 1.4659 0.115166 1.5243 0.105405C1.5788 0.0956442 1.63331 0.0897876 1.68782 0.0858832H1.69171H1.70145H1.70534H1.70729C1.74038 0.083931 1.77153 0.0819788 1.80462 0.0800266H1.80852H1.81046H1.81241H1.81436H1.85913H13.6426C13.6776 0.0800266 13.7127 0.0800266 13.7477 0.083931C13.8256 0.0878354 13.9035 0.0975964 13.9774 0.10931C14.1293 0.134688 14.2733 0.179589 14.4115 0.240107C14.4816 0.271343 14.5498 0.308435 14.616 0.347479C14.6296 0.355287 14.6452 0.365048 14.6588 0.37481L14.6763 0.386523L14.6938 0.398236C14.7055 0.406045 14.7172 0.415806 14.7308 0.423615L14.7542 0.441184H14.7581L14.7678 0.450945L14.7736 0.45485H14.7775L14.7795 0.458754L14.7853 0.462659L14.7912 0.466563H14.7951L14.797 0.470468L14.8028 0.474372L14.8087 0.478276H14.8126L14.8145 0.482181L14.8204 0.486085L14.8262 0.48999H14.8301L14.832 0.493894L14.8379 0.497798L14.8437 0.501703H14.8476L14.8496 0.505607L14.8554 0.511464L14.8612 0.515368H14.8651L14.8671 0.521225L14.8729 0.527081L14.8788 0.532938H14.8827L14.8846 0.538795L14.8904 0.544651L14.8963 0.550508H14.9002L14.9021 0.556365L14.908 0.562221L14.9138 0.568078H14.9177L14.9196 0.573934L14.9255 0.579791L14.9313 0.585648H14.9333L14.9352 0.591504L14.9411 0.597361L14.9469 0.603217H14.9488L14.9508 0.609074L14.9566 0.614931L14.9625 0.620787H14.9644L14.9664 0.626644L14.9722 0.632501L14.978 0.638357H14.98L14.9819 0.644214L14.9878 0.65007L14.9936 0.655927H14.9956L14.9995 0.661784L15.0034 0.665688L15.0092 0.673497L15.0131 0.679353L15.017 0.683258H15.0189L15.0248 0.691067L15.0306 0.696923H15.0326L15.0345 0.70278L15.0384 0.708637L15.0442 0.714493L15.0481 0.72035L15.052 0.724254L15.0579 0.732063L15.0618 0.73792V0.741824L15.0676 0.743776L15.0734 0.749633L15.0793 0.755489L15.0832 0.761346L15.0871 0.76525L15.0929 0.773059L15.0968 0.778916L15.1007 0.78282H15.1026L15.1085 0.792581L15.1143 0.798438H15.1163L15.1202 0.804294L15.124 0.810151L15.1299 0.81796L15.1338 0.823817L15.1377 0.827721L15.1435 0.837482L15.1474 0.843339V0.847243L15.1513 0.851147L15.1552 0.857004L15.1591 0.864813L15.163 0.870669L15.1669 0.874574L15.1708 0.884335L15.1747 0.890191V0.894096L15.1786 0.898L15.1824 0.903857L15.1863 0.911666L15.1902 0.919475L15.2039 0.940949V0.944853L15.2078 0.948758L15.2116 0.956567L15.2155 0.964375L15.2175 0.972184L15.2214 0.978041L15.2253 0.98585L15.237 1.00732L15.2409 1.01513V1.01904L15.2447 1.02294C15.2915 1.10493 15.3323 1.19083 15.3693 1.28454V1.28844C15.3771 1.30406 15.383 1.31968 15.3888 1.33529V1.3392V1.34115V1.34506V1.34896V1.35091V1.35482V1.36067L15.3927 1.37434V1.37824V1.38215V1.388H15.3946V1.39191V1.39581V1.39972V1.40167V1.40557V1.40948V1.41338V1.41729V1.42119V1.4251V1.429V1.43095V1.43486V1.43876V1.44071V1.44462V1.44852C15.4238 1.54418 15.4491 1.64179 15.4647 1.7394C15.4725 1.78235 15.4783 1.82335 15.4842 1.86629C15.4939 1.9561 15.4998 2.0459 15.4998 2.1357C15.4998 2.15912 15.4998 2.18255 15.4998 2.20598C15.4998 2.24112 15.4978 2.2743 15.4939 2.30944V2.3153C15.49 2.37972 15.4822 2.44024 15.4725 2.50271L15.4647 2.54371L15.4628 2.55542V2.55933C15.4491 2.62765 15.4336 2.69793 15.4141 2.76431C15.3985 2.81897 15.381 2.87168 15.3615 2.92634L15.3557 2.94001C15.3479 2.96148 15.3401 2.98295 15.3323 3.00248V3.00443V3.00638V3.00833V3.01029V3.01224V3.01419V3.01614V3.01809V3.02005V3.022V3.02395V3.0259V3.02981V3.03176V3.03371V3.03566V3.03762V3.03957V3.04152V3.04347V3.04543V3.04738V3.05128V3.05519H15.3304L15.3285 3.063V3.06495L15.3265 3.07276C15.3148 3.09813 15.3051 3.12156 15.2915 3.14499V3.14694V3.14889V3.1528V3.1567V3.15865V3.16061V3.16451V3.16841V3.17037V3.17232V3.17427V3.17818V3.18208V3.18403V3.18598L15.2895 3.19184V3.1977V3.2016V3.20551L15.2876 3.21136V3.21332C15.2759 3.23869 15.2623 3.26017 15.2486 3.28359C15.2097 3.34997 15.1649 3.41244 15.1182 3.47101C15.1026 3.49053 15.0871 3.51005 15.0695 3.52957C15.0423 3.56081 15.015 3.59009 14.9878 3.61742L14.9664 3.63694C14.9508 3.65256 14.9352 3.66818 14.9177 3.68184V3.68575H14.9157V3.6877C14.8982 3.70527 14.8788 3.72089 14.8593 3.73846V3.74041V3.74236V3.74431V3.74627V3.74822V3.75017V3.75212V3.75408V3.75603V3.75798L14.8573 3.75993L14.8554 3.76188L14.8535 3.76384L14.8515 3.76579L14.8457 3.76969C14.8009 3.80483 14.7561 3.83802 14.7113 3.86926C14.6899 3.88292 14.6685 3.89659 14.6471 3.91025C14.5809 3.95125 14.5128 3.98639 14.4408 4.01958C14.4174 4.02934 14.3921 4.04105 14.3668 4.05081H14.3648H14.3629H14.3609H14.359H14.357H14.3551C14.3376 4.05862 14.3181 4.06448 14.3006 4.07229C14.2753 4.08205 14.248 4.08986 14.2227 4.09766H14.2208H14.2188H14.2169H14.211H14.2091H14.2071H14.2052H14.2033H14.2013H14.1994H14.1974H14.1955H14.1935H14.1916H14.1896H14.1877H14.1857H14.1838H14.1818H14.1799C14.1507 4.10547 14.1215 4.11133 14.0903 4.11719H14.0864H14.0845H14.0826H14.0806H14.0787H14.0767H14.0748H14.0728H14.0709H14.0689H14.067H14.0631L14.0183 4.12499C13.956 4.1328 13.8937 4.14061 13.8295 4.14256C13.7964 4.14256 13.7633 4.14452 13.7302 4.14452H7.12694L7.11721 4.21089L7.10163 4.30265L7.07243 4.4881L7.04323 4.67356L7.01403 4.85902L6.98483 5.04448L6.95563 5.22994L6.92643 5.4154L6.89723 5.60086L6.86803 5.78632L6.83883 5.97178L6.80963 6.15724L6.78043 6.3427L6.76485 6.43641L6.74928 6.52816L6.7045 6.80732L6.6753 6.99278L6.65973 7.08649L6.61496 7.36565L6.58576 7.55111L6.57018 7.64482L6.55655 7.73657L6.52735 7.92203L6.49815 8.10749L6.48258 8.2012L6.46895 8.29295L6.43975 8.47841L6.41055 8.66387L6.38135 8.84933L6.35215 9.03479L6.32295 9.22025L6.30738 9.31396L6.27817 9.49941L6.2334 9.77858L6.21783 9.87033L6.18863 10.0558L6.15942 10.2413L6.13022 10.4267L6.10102 10.6122L6.07182 10.7976L6.04262 10.9831L6.01342 11.1685L5.99785 11.2623L5.98227 11.354L5.9375 11.6332L5.9083 11.8186L5.8791 12.0041L5.8499 12.1896L5.8207 12.375L5.7915 12.5605L5.7623 12.7459L5.73309 12.9314L5.70389 13.1169L5.67469 13.3023L5.64549 13.4878L5.61629 13.6732L5.58709 13.8587L5.57152 13.9524L5.55789 14.0441L5.52869 14.2296L5.49949 14.4151L5.47029 14.6005L5.45471 14.6942L5.42551 14.8797L5.39631 15.0652L5.36711 15.2506L5.33791 15.4361L5.30871 15.6215L5.27951 15.807L5.25031 15.9924L5.22111 16.1779L5.19191 16.3634L5.16271 16.5488L5.13351 16.7343L5.10431 16.9197L5.0751 17.1052L5.03033 17.3844L5.00113 17.5698L4.98556 17.6635L4.94078 17.9427L4.91158 18.1282L4.88238 18.3136L4.85318 18.4991L4.82398 18.6845L4.79478 18.87L4.76558 19.0555L4.73638 19.2409L4.70718 19.4264L4.67798 19.6118L4.64877 19.7973L4.61957 19.9828L4.59037 20.1682L4.56117 20.3537L4.5456 20.4454L4.5164 20.6309L4.4872 20.8163L4.458 21.0018L4.4288 21.1873L4.39959 21.3727L4.37039 21.5582L4.34119 21.7436L4.31199 21.9291L4.28279 22.1146L4.25359 22.3L4.22439 22.4855L4.19519 22.6709L4.17767 22.7803C4.17183 22.8271 4.16599 22.874 4.1621 22.9189V22.9345V22.9403V22.9501V22.956C4.16015 22.9911 4.1582 23.0243 4.15626 23.0575C4.15236 23.1317 4.15236 23.2039 4.15626 23.2742V23.2781V23.282V23.2859V23.2898V23.2937V23.2995V23.3093V23.3132V23.3171V23.321V23.3249V23.3308V23.3366V23.3405V23.3444V23.3484V23.3523V23.3562V23.3601V23.3659V23.3718V23.3757V23.3796V23.3835V23.3874V23.3913C4.16015 23.4343 4.16599 23.4752 4.17183 23.5162V23.5201V23.5241V23.528V23.5319V23.5358V23.5397V23.5436V23.5475V23.5494V23.5553V23.5611V23.567V23.5709V23.5748V23.5768V23.5826V23.5885V23.5943V23.5982V23.6021V23.606V23.61V23.6139V23.6178V23.6217V23.6295L4.17378 23.6314V23.6373C4.1874 23.6919 4.20298 23.7427 4.2205 23.7935C4.23607 23.8384 4.25359 23.8833 4.27306 23.9262L4.275 23.934L4.27695 23.9418L4.2789 23.9496L4.28085 23.9574L4.28279 23.9653L4.29058 23.9809V23.9848L4.29447 23.9867L4.30226 24.0004C4.34509 24.0804 4.3957 24.1546 4.4541 24.2229C4.54365 24.3303 4.65267 24.4221 4.77726 24.5002C4.88627 24.5685 5.00892 24.6251 5.14519 24.67H5.14713H5.15103H5.15687H5.16271L5.16465 24.6719H5.16855L5.17439 24.6739L5.18023 24.6759H5.18607L5.18996 24.6798L5.1958 24.6817H5.19969H5.20359H5.20943V24.6837H5.21332L5.21722 24.6856L5.22306 24.6876H5.22695H5.23084H5.23668V24.6895H5.24058L5.24447 24.6915L5.25031 24.6934H5.25615H5.26004H5.26199H5.26783C5.31066 24.7051 5.35543 24.7149 5.40021 24.7247H5.4041H5.40799H5.40994H5.41383H5.41773H5.42162H5.42357H5.42746H5.43135H5.43525H5.43914H5.44109H5.44498H5.44887H5.45277H5.45471H5.45861H5.46834L5.47029 24.7266H5.47223H5.47613H5.48002H5.48391H5.48586H5.48976H5.49365H5.49754H5.49949H5.50144H5.50533C5.54621 24.7325 5.58904 24.7383 5.62992 24.7442H5.63771H5.63965H5.64549H5.64939H5.65133H5.65523H5.66107H5.66691H5.67275H5.67469H5.67664H5.68832H5.69221H5.69611H5.70195H5.70584H5.70779H5.70973H5.71168H5.71363C5.74867 24.7461 5.78371 24.75 5.81875 24.752L5.93166 24.7559C5.9667 24.7559 5.99979 24.7559 6.03484 24.7559H6.03678H6.04262H6.04457H6.04846H6.05236H6.05625H6.0582H6.06209H6.06404H6.06793H6.07182H6.07572H6.0835H6.08545H6.0874H6.10881H6.12049C6.15359 24.7559 6.18473 24.752 6.21588 24.7481H6.22756H6.23145H6.2334H6.23729H6.23924H6.24119H6.24508H6.24703H6.24897H6.25481H6.25676L6.2918 24.7422C6.321 24.7383 6.35215 24.7325 6.38135 24.7286C6.39887 24.7247 6.41444 24.7227 6.43197 24.7188H6.43586H6.43975H6.4417H6.44365H6.44559H6.44754H6.44949H6.45143H6.45338C6.48063 24.7129 6.50983 24.7051 6.53709 24.6973L6.58186 24.6837H6.5877H6.58965H6.5916H6.59354H6.59549H6.60133V24.6817H6.60717C6.63248 24.6739 6.65973 24.6641 6.68504 24.6544C6.75901 24.627 6.83104 24.5939 6.90112 24.5568C6.92448 24.5451 6.9459 24.5314 6.96731 24.5197C6.98678 24.508 7.00625 24.4963 7.02571 24.4826C7.04907 24.467 7.07049 24.4513 7.0919 24.4357C7.13278 24.4065 7.17172 24.3752 7.21065 24.344L7.2126 24.342V24.3401V24.3381V24.3362V24.3342V24.3323H7.21454V24.3303H7.21649L7.21844 24.3264L7.22038 24.3245V24.3225C7.24959 24.2971 7.27684 24.2717 7.30409 24.2444L7.33913 24.2073V24.2034C7.36055 24.1819 7.38001 24.1585 7.39948 24.137L7.40532 24.1292V24.1273V24.1253V24.1214V24.1195V24.1175V24.1156V24.1136L7.43063 24.0824C7.4462 24.0629 7.46178 24.0433 7.47735 24.0238C7.5085 23.9828 7.5377 23.9418 7.5669 23.8989C7.60973 23.8345 7.64866 23.7681 7.68565 23.6998C7.69733 23.6763 7.71096 23.6529 7.72264 23.6295L7.74016 23.5963V23.5924V23.5885V23.5846V23.5807V23.5787V23.5748V23.5709L7.746 23.5553C7.75768 23.5319 7.76936 23.5065 7.77909 23.4831C7.80051 23.4343 7.82192 23.3835 7.84139 23.3308V23.3269V23.323L7.84333 23.3152V23.3113V23.3074V23.3035L7.84528 23.2956V23.2917V23.2878V23.2839L7.84917 23.2722V23.2683V23.2644V23.2605V23.2547V23.2507V23.2468C7.85891 23.2215 7.86669 23.1941 7.87643 23.1668V23.1648V23.159V23.1551V23.1512V23.1473V23.1434V23.1395V23.1356V23.1336V23.1317V23.1258V23.1238V23.118L7.87837 23.1102L7.88616 23.0848C7.90173 23.0321 7.91731 22.9755 7.93288 22.9208V22.9189C7.94067 22.8915 7.94651 22.8623 7.9543 22.833L7.96987 22.7646C7.97766 22.7295 7.98544 22.6924 7.99323 22.6573C8.00491 22.5968 8.01659 22.5362 8.02632 22.4757L8.04385 22.3644L8.05553 22.2883L8.08473 22.1028L8.11393 21.9174L8.14507 21.7319L8.17622 21.5465L8.20542 21.361L8.2502 21.0818L8.2794 20.8964L8.3086 20.7109L8.3378 20.5255L8.367 20.34L8.38257 20.2483L8.39815 20.1565L8.42735 19.971L8.45655 19.7856L8.47212 19.6938L8.50327 19.5084L8.53442 19.3229L8.56556 19.1374L8.59671 18.952L8.61229 18.8583L8.62786 18.7665L8.65901 18.5811L8.69015 18.3956L8.73493 18.1184L8.76413 17.9329L8.79333 17.7475L8.82253 17.562L8.85173 17.3766L8.88093 17.1911L8.89651 17.0993L8.91208 17.0056L8.92765 16.9139L8.9588 16.7284L8.98995 16.543L9.0211 16.3575L9.05224 16.1721L9.08339 15.9866L9.11454 15.8011L9.15931 15.5239L9.18851 15.3385L9.21771 15.153L9.24691 14.9675L9.27612 14.7821L9.30532 14.5966L9.33452 14.4112L9.36372 14.2257L9.37929 14.132L9.41044 13.9465L9.44159 13.7611L9.47273 13.5756L9.50388 13.3902L9.53503 13.2047L9.56618 13.0192L9.61095 12.742L9.64015 12.5566L9.66935 12.3711L9.69855 12.1856L9.72775 12.0002L9.75695 11.8147L9.78615 11.6293L9.80173 11.5375L9.83288 11.3521L9.86402 11.1666L9.89517 10.9811L9.92632 10.7957L9.95747 10.6102L9.98861 10.4248L10.0198 10.2393L10.049 10.0538L10.0821 9.84691L10.0879 9.81177V9.80786V9.80396V9.80005L10.0918 9.77663C10.0976 9.74734 10.1035 9.71806 10.1113 9.68878L10.119 9.65754V9.65364V9.64973V9.64778V9.64583V9.64388V9.63997V9.63607V9.63216V9.63021V9.62826V9.62436V9.62045V9.61655V9.61459V9.61264V9.60874C10.1268 9.57946 10.1346 9.55212 10.1444 9.52479C10.1697 9.4467 10.2008 9.37057 10.2378 9.29638C10.2495 9.27296 10.2612 9.24953 10.2748 9.22611V9.2222V9.22025V9.2183V9.21634V9.21439V9.21049V9.20658V9.20463V9.20268V9.19878V9.19682V9.19487V9.19097V9.18706V9.18511V9.18316V9.1812V9.17925V9.17535V9.1734V9.17144V9.16949V9.16754V9.16364V9.16168V9.15973C10.2884 9.13826 10.302 9.11678 10.3157 9.09531L10.3196 9.08945L10.3234 9.08359L10.3273 9.07774V9.07579V9.07383L10.3293 9.06993L10.3312 9.06602C10.3526 9.03674 10.3741 9.00746 10.3974 8.97818V8.97622V8.97427V8.97232V8.97037V8.96841V8.96646V8.96451V8.96256V8.96061V8.95865V8.9567V8.95475V8.9528V8.95084V8.94889V8.94694V8.94499V8.94304V8.94108V8.93913V8.93718V8.93523V8.93328C10.4208 8.90594 10.4441 8.87861 10.4695 8.85323V8.85128L10.4792 8.84152L10.4831 8.83762V8.83566V8.83371C10.5006 8.81614 10.5181 8.79857 10.5376 8.78296V8.781V8.77905V8.77515V8.77319V8.77124V8.76929L10.5493 8.75758L10.5532 8.75367C10.5746 8.73415 10.5979 8.71658 10.6193 8.69706L10.6252 8.69315H10.6271L10.6291 8.68925C10.6466 8.67558 10.6622 8.66387 10.6797 8.65021L10.6992 8.63459L10.74 8.60531C10.7829 8.57602 10.8257 8.54869 10.8666 8.52136C10.9347 8.48036 11.0029 8.44132 11.069 8.41008C11.0924 8.39837 11.1177 8.38861 11.1411 8.3769C11.1917 8.35542 11.2423 8.3359 11.291 8.31833L11.3007 8.31443C11.3241 8.30662 11.3474 8.29881 11.3708 8.29295L11.3805 8.28905C11.4039 8.28319 11.4292 8.27733 11.4525 8.27148H11.4584H11.4603H11.4623H11.4642H11.4662H11.4681H11.4701H11.472H11.474H11.4759H11.4856V8.26953H11.4876L11.5207 8.26367C11.5499 8.25781 11.581 8.25391 11.6102 8.25C11.7017 8.23829 11.7971 8.23243 11.8964 8.23439H11.9022H11.9061C11.9412 8.23439 11.9782 8.23634 12.0132 8.23829H12.0229H12.0249H12.0268H12.0307H12.0327H12.0346H12.0366H12.0385H12.0424H12.0443H12.0482C12.0697 8.24024 12.093 8.2422 12.1144 8.24415C12.1417 8.24805 12.1689 8.25 12.1962 8.25391C12.2507 8.26172 12.3033 8.26953 12.3558 8.28124C12.4025 8.291 12.4473 8.30271 12.4921 8.31638C12.6089 8.34957 12.7218 8.39642 12.8269 8.45303H12.8289H12.8328L12.8347 8.45499L12.8386 8.45694H12.8425V8.45889L12.8444 8.46084H12.8483H12.8503L12.8522 8.46475H12.8542H12.8561L12.86 8.46865H12.8639L12.8659 8.47256H12.8678H12.8717L12.8736 8.47451L12.8775 8.47646H12.8814V8.47841L12.8853 8.48036H12.8892H12.8912L12.8931 8.48427H12.8951H12.899L12.9009 8.48817H12.9028L12.9067 8.49208H12.9087H12.9126V8.49598L12.9145 8.49793H12.9184V8.49989L12.9204 8.50379H12.9223H12.9243L12.9262 8.5077H12.9282L12.9301 8.5116H12.932L12.934 8.5155H12.9359H12.9379V8.51941L12.9398 8.52136H12.9418V8.52331L12.9437 8.52722H12.9457L12.9476 8.53112H12.9496V8.53503L12.9515 8.53698H12.9535V8.53893L12.9554 8.54283H12.9574V8.54479V8.54674C13.1403 8.67949 13.3097 8.85324 13.4674 9.06798L13.4732 9.07774L13.481 9.0914L13.4888 9.10312V9.10507V9.10897V9.11288V9.11483V9.11678V9.12069V9.12459V9.12654V9.13045V9.1363V9.14216V9.14607V9.14997V9.15387H13.4908V9.15973V9.16364V9.16754H13.4927V9.17144L13.4966 9.17535V9.17925L13.5005 9.18316L13.5024 9.18706V9.19097V9.19487L13.5063 9.19682L13.5083 9.20268V9.20658V9.21049H13.5122V9.21439L13.5161 9.2183V9.2222L13.5219 9.22611L13.5238 9.23196V9.23587H13.5258V9.24172L13.5297 9.24368L13.5316 9.25148L13.5336 9.25734L13.5375 9.2632L13.5394 9.26905L13.5433 9.27491L13.5472 9.28077V9.28662H13.5511L13.555 9.29248V9.29638L13.5589 9.29834L13.5628 9.30419L13.5686 9.31786L13.5706 9.32372L13.5745 9.32957C13.6368 9.4467 13.7205 9.60874 13.8256 9.81177L13.9482 10.048L14.0611 10.2686L14.0709 10.2862L14.3142 10.7586L14.4349 10.9929L14.6744 11.4633L14.6802 11.477L14.7931 11.6995L14.9119 11.9338L14.9839 12.0783L15.0306 12.17L15.2681 12.6366L15.2739 12.6464L15.3869 12.8689L15.6244 13.3355L15.636 13.357L15.7431 13.5678L15.8599 13.8001L16.0955 14.2667L16.2123 14.499L16.3291 14.7313L16.6795 15.4283L16.7963 15.6586L16.8547 15.7758L16.9131 15.8909L16.9987 16.0608L17.0104 15.9924L17.026 15.8987L17.0416 15.807L17.0571 15.7133L17.0727 15.6196L17.0883 15.5259L17.1039 15.4322L17.1486 15.155L17.1642 15.0612L17.1778 14.9812V14.9695L17.1954 14.8758L17.2109 14.784L17.2265 14.6903L17.2421 14.5986L17.2576 14.5049L17.2732 14.4112L17.2907 14.3018L17.3316 14.0402L17.3472 13.9485L17.3589 13.8782L17.3628 13.8567L17.3783 13.763L17.3939 13.6713L17.4095 13.5776L17.4251 13.4839L17.4426 13.3745L17.4835 13.1129L17.499 13.0212L17.5107 12.9431V12.9275L17.5282 12.8357L17.5438 12.742L17.5594 12.6483L17.575 12.5546L17.5905 12.4629L17.6061 12.3692L17.6217 12.2754L17.6509 12.09L17.6665 11.9963L17.682 11.9026L17.6976 11.8108L17.7132 11.7191L17.7288 11.6254L17.7443 11.5336L17.7599 11.4399L17.7755 11.3462L17.8202 11.069L17.8358 10.9753L17.8806 10.6961L17.8962 10.6044L17.9117 10.5126L17.9273 10.4189L17.9429 10.3271L17.9585 10.2334L17.9877 10.048L18.0169 9.86252L18.0324 9.76882L18.048 9.67706L18.0636 9.58336L18.0792 9.48965L18.0947 9.3979L18.1103 9.30419L18.1259 9.21244L18.1415 9.12069L18.1707 8.93523L18.1862 8.84347L18.2018 8.74977L18.2174 8.65801L18.233 8.56431L18.2485 8.4706L18.2641 8.3769L18.2797 8.28514L18.2952 8.19144L18.3244 8.00598L18.3361 7.92789V7.91227L18.3536 7.81857L18.3692 7.72681L18.3848 7.63311L18.4004 7.54135L18.4159 7.44765L18.4315 7.35394L18.4471 7.26024L18.4919 6.98302L18.5074 6.88932L18.5366 6.70386L18.5522 6.61015L18.5678 6.5184L18.5834 6.42469L18.6009 6.31537L18.6281 6.14748L18.6573 5.96202L18.6729 5.86831L18.6885 5.77656L18.6963 5.7258V5.7219V5.71799V5.70823L18.6982 5.70433V5.69066L18.7021 5.68676V5.68285C18.7099 5.64381 18.7177 5.60672 18.7255 5.56963V5.56572V5.56182V5.55986V5.55791V5.55596V5.55206V5.54815V5.54425V5.54229V5.54034V5.53644V5.53253C18.7352 5.49739 18.7449 5.46226 18.7547 5.42907V5.42516V5.42321V5.42126V5.41931V5.41345V5.4115V5.40955V5.40759V5.40369V5.39978V5.39588V5.39198V5.39002V5.38807V5.38612V5.38026V5.37831V5.37636V5.37441V5.3705V5.3666V5.36269V5.35879V5.35684C18.7644 5.33146 18.7741 5.30608 18.7839 5.2807V5.2768V5.27484V5.27289V5.27094L18.7917 5.25532C18.8092 5.21432 18.8286 5.17333 18.8501 5.13428V5.13038V5.12843V5.12648V5.12452V5.12257V5.11867V5.11671V5.11476V5.11281V5.11086V5.10891L18.852 5.105V5.1011C18.8637 5.07962 18.8773 5.0562 18.8909 5.03472L18.9007 5.0191C18.9143 4.99958 18.926 4.97811 18.9396 4.95859V4.95468H18.9435C18.9571 4.93321 18.9727 4.91369 18.9883 4.89221C18.998 4.87855 19.0097 4.86488 19.0194 4.84926L19.0214 4.84536V4.84341H19.0233V4.8395V4.83755C19.0545 4.79851 19.0876 4.75946 19.1226 4.72432C19.1576 4.68918 19.1927 4.65404 19.2297 4.6189C19.2589 4.59157 19.29 4.56619 19.3212 4.54081L19.327 4.53496L19.3328 4.53105C19.3523 4.51544 19.3698 4.50177 19.3893 4.4881H19.3912C19.4088 4.47444 19.4243 4.46273 19.4419 4.45101H19.4458L19.4496 4.44711L19.4555 4.4432C19.4769 4.42954 19.4983 4.41587 19.5178 4.40221H19.5197H19.5217V4.40026H19.5236H19.5256H19.5275L19.5353 4.3944L19.5392 4.39245H19.5411H19.5431V4.39049H19.545C19.5918 4.36121 19.6404 4.33388 19.6871 4.31045C19.7105 4.29874 19.7339 4.28703 19.7572 4.27531H19.7592H19.7611H19.765V4.27336H19.767H19.7689H19.7709C19.7864 4.26555 19.802 4.2597 19.8176 4.25189C19.8429 4.24213 19.8682 4.23237 19.8916 4.2226C19.9071 4.21675 19.9227 4.21089 19.9383 4.20504L19.9461 4.20113L19.9538 4.19723C19.9792 4.18942 20.0025 4.18161 20.0278 4.17575H20.0337C20.0609 4.16794 20.0862 4.16013 20.1135 4.15428H20.1174C20.1466 4.14647 20.1758 4.14256 20.205 4.13671H20.2069H20.2089H20.2108H20.2147H20.2167H20.2186H20.2205H20.2225H20.2244H20.2264H20.2283H20.2303H20.2322H20.2342H20.2361H20.2381H20.24H20.242H20.2439H20.2459H20.2478H20.2497H20.2517H20.2536H20.2556H20.2575C20.2887 4.1328 20.3198 4.13085 20.351 4.12695C20.4172 4.12109 20.4834 4.11914 20.5515 4.12109C20.5826 4.12109 20.6157 4.12109 20.6469 4.12304H20.6508H20.6547C20.7286 4.12695 20.8026 4.13476 20.8805 4.14452C20.9389 4.15233 20.9973 4.16209 21.0537 4.17575H21.0557H21.0635L21.0674 4.1777H21.0693H21.0732H21.0752H21.079H21.0829H21.0868H21.0907H21.0946H21.0985H21.1024H21.1063H21.1102H21.1141H21.118H21.1219H21.1238H21.1277C21.2406 4.20894 21.3477 4.24798 21.4489 4.29874C21.5443 4.34559 21.6339 4.40221 21.7195 4.46663L21.7273 4.47249L21.7351 4.47834L21.7429 4.4842L21.7507 4.49006L21.7585 4.49591L21.7643 4.50177L21.7701 4.50763L21.776 4.51348H21.7779L21.7838 4.51934H21.7857L21.8169 4.54667L21.8207 4.55058L21.8246 4.55448L21.8285 4.55838L21.8324 4.56229L21.8499 4.57791L21.8538 4.58181L21.8577 4.58571L21.8714 4.59743H21.8753L21.8811 4.60524L21.8908 4.61305H21.8928L21.8986 4.62085H21.9006L21.9161 4.63647L21.9317 4.65404L21.9473 4.67161L21.9551 4.67942L21.9629 4.68723L21.9804 4.7048L21.9882 4.71261C22.0018 4.72823 22.0154 4.74189 22.029 4.75751H22.031L22.0368 4.76727H22.0388L22.0446 4.77703V4.78094L22.0524 4.78679L22.0563 4.7907L22.0621 4.79655L22.066 4.80046L22.0699 4.80631L22.0738 4.81022L22.0777 4.81608L22.0816 4.81998L22.0855 4.82584L22.0933 4.8356L22.0972 4.84145L22.1011 4.84536L22.1166 4.86488L22.1225 4.87074V4.87464L22.1303 4.8805V4.8844L22.1381 4.89221H22.14L22.1458 4.90197L22.1536 4.91369L22.1595 4.92149L22.1653 4.93126L22.1712 4.94102L22.177 4.95078L22.1828 4.96054L22.1887 4.9703L22.1945 4.98006L22.2004 4.98982C22.2062 5.00153 22.214 5.0113 22.2198 5.02301C22.2296 5.03863 22.2704 5.11281 22.3405 5.24946V5.25337C22.3756 5.31584 22.4145 5.39393 22.4593 5.48178H22.4573L22.5741 5.71019H22.5761L22.687 5.93469L22.6909 5.9425L22.8038 6.16895L23.1426 6.85222L23.3684 7.30709L23.4813 7.53354L23.5942 7.76L23.8181 8.21096L23.929 8.43546L24.2619 9.11288L24.3729 9.33933L24.4741 9.54432L24.4839 9.56579L24.5948 9.79029L24.9277 10.4658L25.025 10.661L25.0387 10.6903L25.0426 10.6981L25.1496 10.9167L25.3716 11.3677L25.5935 11.8167L25.8154 12.2657L25.9264 12.4902L26.2593 13.1657L26.3702 13.3902L26.7012 14.0656L26.9231 14.5166L27.0555 14.784L27.365 15.4146L27.5869 15.8656L27.731 16.1584C27.8186 16.3263 27.9451 16.4473 28.1067 16.5254L28.1145 16.5293C28.1651 16.5527 28.2176 16.5723 28.2702 16.584C28.3481 16.6035 28.4298 16.6093 28.5116 16.6015L28.5311 16.5996H28.535H28.5447H28.5486H28.5544H28.5603H28.5622C28.5953 16.5937 28.6284 16.5859 28.6596 16.5762H28.6615H28.6634H28.6654H28.6673H28.6693H28.6732H28.6751H28.6771C28.7121 16.5625 28.7452 16.5469 28.7783 16.5293H28.7803L28.7861 16.5254H28.788H28.79L28.7939 16.5215L28.8017 16.5176H28.8036L28.8075 16.5137H28.8095V16.5117H28.8114H28.8133C28.8328 16.4981 28.8542 16.4825 28.8737 16.4649L28.8776 16.461C28.8912 16.4473 28.9048 16.4356 28.9185 16.4219C28.9282 16.4122 28.9399 16.4005 28.9496 16.3887L28.9691 16.3673C29.0022 16.3282 29.0314 16.2872 29.0567 16.2423V16.2384V16.2345V16.2306V16.2267V16.2228V16.2189V16.215V16.2111V16.2072V16.2033V16.1994V16.1955V16.1916V16.1877V16.1838V16.1799V16.176L29.0606 16.1701V16.1662V16.1623C29.0839 16.1135 29.1054 16.0627 29.1209 16.0081C29.1384 15.9534 29.1521 15.8968 29.1638 15.8363C29.1676 15.8187 29.1696 15.8031 29.1715 15.7855L29.1774 15.7445L29.2066 15.5591L29.2514 15.2799L29.2669 15.1862L29.3117 14.907L29.3409 14.7216L29.3565 14.6279L29.4013 14.3487L29.4305 14.1632L29.4441 14.0695L29.4577 13.9758L29.4869 13.7904L29.5025 13.6967L29.5161 13.6029L29.5297 13.5092L29.5336 13.4839L29.5434 13.4155L29.5726 13.2301L29.5881 13.1364L29.6329 12.8572L29.6621 12.6717L29.6777 12.578L29.7225 12.2989L29.7517 12.1134L29.7672 12.0197L29.812 11.7405L29.8412 11.5551L29.8568 11.4614L29.9016 11.1822L29.9308 10.9968L29.96 10.8113L29.9892 10.6258L30.0184 10.4404L30.0476 10.2549L30.0631 10.1612L30.0768 10.0675L30.0923 9.9738L30.1371 9.69464L30.1663 9.50918L30.1819 9.41547L30.2267 9.1363L30.2559 8.95084L30.2714 8.85714L30.3162 8.57797L30.3454 8.39252L30.361 8.29881L30.4058 8.01964L30.435 7.83418L30.4505 7.74243L30.4953 7.46326L30.5245 7.27781L30.5401 7.1841L30.5849 6.90493L30.6141 6.71947L30.6277 6.62577L30.6725 6.3466L30.7017 6.16114L30.7172 6.06744L30.762 5.78827L30.7912 5.60281L30.8068 5.50911L30.8516 5.22994L30.8671 5.13819L30.9119 4.85902L30.9411 4.67356L30.9567 4.57986L31.0015 4.30069L31.0307 4.11523L31.0462 4.02348L31.091 3.74431L31.1202 3.55886L31.1338 3.4671L31.1786 3.18794L31.2078 3.00248L31.2214 2.91072L31.2662 2.63156L31.2954 2.4461L31.311 2.35239L31.3558 2.07323L31.385 1.88777L31.4044 1.75697C31.4473 1.48561 31.5329 1.23768 31.6614 1.01513C31.7957 0.780868 31.969 0.5876 32.1792 0.435328C32.4323 0.253773 32.6659 0.130784 32.88 0.0624567C33.1604 -0.0273447 33.4602 -0.0429623 33.7775 0.0156038C34.1006 0.0780744 34.3771 0.187398 34.6068 0.345526C34.7975 0.476324 34.9786 0.663736 35.1499 0.903857C35.2998 1.11274 35.401 1.35286 35.4536 1.62812C35.5023 1.88191 35.5042 2.14741 35.4575 2.42267L34.9513 5.64186L34.9066 5.92102L34.8774 6.10648L34.8482 6.29194L34.8326 6.38565L34.7878 6.66481L34.7586 6.85222L34.743 6.94398L34.6983 7.22314L34.6691 7.4086L34.6399 7.59406L34.6243 7.68777L34.5795 7.96693L34.5503 8.15239L34.5347 8.2461L34.49 8.52526L34.4608 8.71072L34.4316 8.89618L34.416 8.98794L34.3712 9.2671L34.342 9.45256L34.3264 9.54627L34.2972 9.73173L34.2525 10.0109L34.2233 10.1964L34.2096 10.2901L34.1649 10.5692L34.1357 10.7547L34.1201 10.8464L34.0909 11.0319L34.0461 11.3111L34.0169 11.4965L34.0013 11.5902L33.9566 11.8694L33.9274 12.0549L33.9118 12.1466L33.8826 12.3321L33.8378 12.6112L33.8222 12.703L33.793 12.8884L33.7483 13.1676L33.7191 13.3531L33.7035 13.4448L33.6743 13.6303L33.6295 13.9094L33.6003 14.0949L33.5847 14.1867L33.54 14.4658L33.5108 14.6513L33.4952 14.745L33.4504 15.0242L33.4212 15.2096L33.392 15.3951L33.3764 15.4868L33.3317 15.766L33.3025 15.9515L33.2869 16.0452L33.2577 16.2306L33.2246 16.4395V16.4454V16.4512V16.4649L33.2227 16.4805V16.4903V16.4961V16.502V16.5078V16.5137C33.2168 16.5469 33.2129 16.5781 33.2071 16.6074C33.1935 16.6796 33.1798 16.7519 33.1643 16.8221V16.828V16.8299V16.8358V16.8378V16.8417V16.8456V16.8495V16.8514V16.8534V16.8573V16.8612V16.8651V16.867V16.869C33.1584 16.8983 33.1506 16.9295 33.1428 16.9588C33.1214 17.0447 33.1 17.1306 33.0767 17.2145C33.0689 17.2419 33.0611 17.2692 33.0533 17.2965V17.3024H33.0513V17.3063V17.3121H33.0494V17.316V17.3239L33.0455 17.3258V17.3297V17.3375V17.3414L33.0416 17.3551C33.0221 17.4176 33.0027 17.4761 32.9832 17.5347L32.956 17.6128C32.9462 17.6401 32.9365 17.6655 32.9268 17.6909C32.9073 17.7416 32.8859 17.7924 32.8664 17.8431C32.8567 17.8685 32.845 17.8939 32.8353 17.9173V17.9193V17.9212L32.8314 17.9271V17.929L32.8294 17.9368V17.9388L32.8061 17.9896C32.7944 18.013 32.7846 18.0384 32.773 18.0618C32.7496 18.1106 32.7262 18.1574 32.7029 18.2043L32.699 18.2141V18.216L32.6873 18.2394V18.2414V18.2433V18.2472L32.6834 18.2531L32.6815 18.257V18.259V18.2629V18.2668V18.2687V18.2707L32.6445 18.341V18.3449L32.6406 18.3488L32.6055 18.4093L32.5841 18.4464L32.5666 18.4776C32.5277 18.544 32.4868 18.6104 32.444 18.6728C32.4167 18.7158 32.3875 18.7587 32.3583 18.7997L32.3135 18.8622C32.2843 18.9032 32.2532 18.9442 32.222 18.9832L32.2181 18.9871L32.2162 18.9891V18.991V18.993C32.187 19.0301 32.1578 19.0672 32.1286 19.1023L32.1228 19.1101L32.1189 19.116V19.1179V19.1199V19.1218V19.1238V19.1257V19.1277V19.1316V19.1335L32.1091 19.1472L32.1052 19.1531C32.0819 19.1804 32.0566 19.2077 32.0332 19.2351L32.0293 19.2429V19.2448V19.2468V19.2487V19.2507L31.9787 19.3073V19.3092V19.3112V19.3131V19.3151V19.3171V19.319V19.321V19.3229L31.9748 19.3268L31.9729 19.3307L31.969 19.3366C31.9495 19.3561 31.932 19.3756 31.9106 19.3951C31.8755 19.4303 31.8385 19.4635 31.8016 19.4986V19.5025L31.7977 19.5064V19.5103V19.5142V19.5181V19.522V19.5259V19.5279V19.5298V19.5318V19.5337V19.5357V19.5377C31.7782 19.5533 31.7607 19.5708 31.7412 19.5865L31.7081 19.6138L31.7042 19.6177V19.6196L31.6925 19.6294C31.6731 19.645 31.6536 19.6606 31.6341 19.6763C31.5796 19.7212 31.5232 19.7641 31.4667 19.8051H31.4648L31.4628 19.809V19.811H31.4609C31.4219 19.8383 31.385 19.8656 31.346 19.891H31.3441H31.3421V19.893C31.3032 19.9183 31.2643 19.9437 31.2234 19.9691H31.2214H31.2195H31.2175C31.1747 19.9964 31.1299 20.0238 31.0871 20.0491C31.0657 20.0608 31.0423 20.0745 31.019 20.0862C30.9742 20.1116 30.9275 20.135 30.8827 20.1585L30.8282 20.1858H30.8262C30.799 20.1994 30.7698 20.2131 30.7425 20.2268C30.6705 20.26 30.5985 20.2932 30.5245 20.3224C30.4992 20.3322 30.4739 20.342 30.4486 20.3517H30.4466H30.4447H30.4427H30.4408H30.4389H30.4369H30.435H30.4311H30.4291H30.4252H30.4233H30.4213L30.4174 20.3537H30.4155H30.4077V20.3556L30.3941 20.3615L30.3162 20.3888C30.2636 20.4064 30.2111 20.424 30.1585 20.4396C30.1021 20.4571 30.0437 20.4728 29.9872 20.4884L29.9171 20.5059L29.8334 20.5255H29.8295H29.8256H29.8217H29.8178H29.814H29.8101H29.8062L29.777 20.5313H29.7731H29.7692H29.7653H29.7614H29.7575L29.7439 20.5352C29.6855 20.5469 29.629 20.5587 29.5706 20.5684C29.5414 20.5743 29.5122 20.5782 29.4811 20.584L29.4635 20.586H29.4616H29.4538H29.4519H29.4499H29.448H29.446H29.4421H29.4402H29.4382H29.4363H29.4305H29.4285H29.4246H29.4227H29.4149C29.3837 20.5899 29.3545 20.5938 29.3234 20.5977H29.3214L29.2747 20.6036L29.2338 20.6075H29.2319C29.2007 20.6114 29.1696 20.6133 29.1365 20.6172H29.1346H29.1326C29.0392 20.625 28.9438 20.6309 28.8484 20.6348C28.7822 20.6367 28.7141 20.6387 28.6459 20.6387C28.6109 20.6387 28.5778 20.6387 28.5427 20.6387C28.4688 20.6387 28.3967 20.6348 28.3228 20.6309H28.3189H28.3169H28.313H28.3091H28.3072H28.3033H28.2994H28.2975H28.2936H28.2897H28.2858H28.2819H28.278H28.2741H28.2663H28.2605H28.2566H28.2546H28.2469H28.2449C28.204 20.627 28.1612 20.625 28.1203 20.6211L28.097 20.6192H28.095H28.0931H28.0911H28.0892H28.0872H28.0853H28.0814H28.0794H28.0755H28.0736H28.0697H28.0678H28.0639H28.06H28.0561H28.0522H28.0483H28.0444H28.0405H28.0366H28.0327H28.023C27.9451 20.6114 27.8672 20.6016 27.7894 20.5899L27.7602 20.586C27.6881 20.5762 27.6161 20.5626 27.5441 20.5489C27.4545 20.5313 27.3669 20.5098 27.2774 20.4845C27.2307 20.4708 27.182 20.4571 27.1353 20.4415H27.1333H27.1314H27.1275H27.1217V20.4396H27.1178L27.1139 20.4376H27.11H27.1061H27.1041H27.1022H27.0983H27.0944V20.4357H27.0905L27.0866 20.4337L27.0827 20.4318H27.0788H27.0769H27.0749H27.071H27.0671V20.4298H27.0632L27.0594 20.4279L27.0555 20.4259H27.0516H27.0496H27.0477H27.0438H27.0399V20.424L27.0321 20.42H27.0263H27.0224L27.0204 20.4181H27.0185L27.0146 20.4161L27.0107 20.4142C26.9581 20.3947 26.9036 20.3751 26.8511 20.3537H26.8452L26.8394 20.3498L26.7849 20.3283H26.779L26.7732 20.3224C26.7459 20.3107 26.7206 20.301 26.6953 20.2892H26.6914L26.6875 20.2853H26.6836V20.2834C26.6213 20.2561 26.559 20.2268 26.4987 20.1975H26.4948L26.4909 20.1936H26.487L26.4831 20.1897H26.4792L26.4676 20.1819H26.4637C26.3157 20.1057 26.1717 20.0257 26.0315 19.9359L26.0295 19.9339H26.0257L26.0218 19.93L26.0101 19.9222H26.0062L26.0023 19.9164L25.9984 19.9144H25.9945L25.9906 19.9105L25.9867 19.9086H25.9828L25.9809 19.9047L25.977 19.9008H25.9731V19.8969H25.9692L25.9653 19.893H25.9614V19.891L25.9517 19.8851L25.9478 19.8812H25.9439V19.8773H25.94L25.9322 19.8695L25.9283 19.8656H25.9244V19.8617L25.9186 19.8578H25.9147V19.8539H25.9108L25.9069 19.8481H25.903V19.8461H25.8991L25.8933 19.8402H25.8913L25.8874 19.8363H25.8835V19.8344H25.8796L25.8758 19.8285H25.8719V19.8266H25.868L25.8641 19.8207L25.8563 19.8149H25.8524V19.8129H25.8485L25.8446 19.8071H25.8427V19.8051H25.8388L25.8349 19.7992L25.8329 19.7973H25.829L25.8251 19.7914L25.8174 19.7856L25.8096 19.7797L25.8018 19.7739H25.7998V19.7719C25.6558 19.6704 25.5215 19.565 25.3969 19.4557L25.3754 19.4381H25.3735C25.1594 19.2468 24.9705 19.0476 24.809 18.8368C24.7155 18.7158 24.6299 18.5908 24.5539 18.462C24.5111 18.3878 24.4702 18.3117 24.4332 18.2355V18.2316V18.2277H24.4313V18.2219V18.218H24.4293L24.3164 17.9915L23.9797 17.3102L23.8667 17.0837L23.6409 16.6289L23.3041 15.9475L23.1912 15.7211L22.9654 15.2662L22.7396 14.8114L22.4924 14.3136L22.2899 13.9036L22.1848 13.6908L22.1789 13.6771L22.066 13.4507L21.8402 12.9978L21.7623 12.8416L21.7526 12.906L21.737 12.9997L21.7078 13.1852L21.6631 13.4643L21.6475 13.558L21.6183 13.7435L21.5735 14.0227L21.5579 14.1164L21.5132 14.3955L21.4976 14.4893L21.4684 14.6747L21.4548 14.7587V14.7684L21.4372 14.8738L21.3944 15.1393L21.3788 15.233L21.3341 15.5122L21.3185 15.604L21.2893 15.7894L21.2445 16.0686L21.2289 16.1623L21.2153 16.2443V16.256L21.1959 16.3653L21.1686 16.5352L21.1238 16.8143L21.1082 16.9061L21.079 17.0915L21.0674 17.1696V17.1852L21.0498 17.277L21.0051 17.5562L20.9895 17.6499L20.9603 17.8353L20.9486 17.9115V17.929L20.9292 18.0306L20.8863 18.3L20.8707 18.3917L20.8415 18.5772L20.8065 18.8017L20.7831 18.9481L20.7384 19.2273L20.7228 19.319L20.7072 19.4127L20.6917 19.5064L20.6469 19.7836L20.6313 19.8773L20.6177 19.9652V19.9691L20.6021 20.0628L20.5729 20.2483L20.5437 20.4337L20.5145 20.6192L20.4989 20.7109L20.4814 20.8163L20.4386 21.0818L20.423 21.1736L20.3782 21.4528L20.3627 21.5445L20.349 21.6324V21.6363L20.3335 21.73L20.2887 22.0091L20.2731 22.1009L20.2439 22.2864L20.2283 22.3801L20.2128 22.4738L20.1972 22.5655L20.1816 22.6592L20.166 22.751L20.1505 22.8427L20.1349 22.9364L20.1057 23.1219L20.0882 23.2234C20.0843 23.2507 20.0784 23.2761 20.0726 23.3035C20.0668 23.3347 20.059 23.364 20.0531 23.3913L20.0512 23.403L20.0473 23.4186V23.4225V23.4264V23.4303C20.0278 23.5006 20.0045 23.569 19.9772 23.6334C19.9675 23.6588 19.9558 23.6822 19.9441 23.7076C19.9188 23.7622 19.8896 23.8149 19.8565 23.8676V23.8696V23.8715V23.8755V23.8794V23.8813V23.8833V23.8872V23.8891V23.893H19.8526V23.8969V23.8989V23.9008V23.9047V23.9067V23.9086V23.9125C19.839 23.934 19.8234 23.9555 19.8078 23.9789L19.8059 23.9809L19.804 23.9828V23.9848V23.9867V23.9887V23.9906V23.9926V23.9945V23.9965V23.9984V24.0004V24.0023V24.0043V24.0062V24.0082V24.0102V24.0121V24.0141V24.016V24.018C19.7728 24.059 19.7397 24.0961 19.7047 24.1331C19.6871 24.1507 19.6696 24.1683 19.6521 24.1859C19.621 24.2171 19.5879 24.2464 19.5528 24.2757L19.5411 24.2854C19.4827 24.3342 19.4224 24.3791 19.3601 24.4201C19.3387 24.4338 19.3173 24.4474 19.2959 24.4611C19.2511 24.4884 19.2063 24.5119 19.1596 24.5353H19.1576H19.1557H19.1537H19.1518H19.1499H19.1479H19.146H19.144H19.1421H19.1401H19.1382H19.1362H19.1343L19.1284 24.5392H19.1245H19.1207H19.1168C19.0681 24.5607 19.0194 24.5821 18.9688 24.5997C18.9435 24.6095 18.9182 24.6173 18.8909 24.6251H18.889H18.8812V24.627H18.8793H18.8754L18.8617 24.631H18.8598H18.8578L18.852 24.6329H18.8501H18.8481H18.8462H18.8442H18.8423H18.8403H18.8384H18.8364H18.8345H18.8306C18.8033 24.6407 18.7761 24.6466 18.7469 24.6544H18.7449H18.743H18.7333V24.6563C18.6612 24.6719 18.5853 24.6856 18.5094 24.6954C18.4782 24.6993 18.4471 24.7032 18.4159 24.7051H18.414H18.412H18.4101H18.4082H18.4062H18.4004L18.3381 24.709C18.305 24.709 18.2699 24.709 18.2368 24.709C18.2115 24.709 18.1843 24.709 18.159 24.709H18.157H18.1551H18.1512H18.1473H18.1434H18.1395H18.1356C18.0811 24.7071 18.0285 24.7012 17.974 24.6954H17.9701H17.9643H17.9546H17.9507H17.9468H17.9429H17.9409H17.937H17.9332H17.9273H17.9156L17.9137 24.6934C17.8709 24.6876 17.83 24.6778 17.7872 24.67H17.7852H17.7813L17.7657 24.6661H17.7638C17.7268 24.6563 17.6918 24.6466 17.6548 24.6368C17.6042 24.6212 17.5535 24.6036 17.5029 24.5861H17.501H17.499H17.4971H17.4951H17.4893L17.4874 24.5821H17.4854L17.4815 24.5802L17.4757 24.5782H17.4737H17.4718H17.4698H17.4679H17.4659H17.464H17.4621H17.4601H17.4582H17.4562H17.4543H17.4523H17.4504H17.4484H17.4465H17.4445H17.4426H17.4406H17.4387H17.4367L17.4329 24.5763H17.429V24.5743H17.427H17.4251H17.4231H17.4212H17.4192H17.4173H17.4153H17.4134H17.4114H17.4056L17.3998 24.5704H17.3939L17.3881 24.5646H17.3822L17.3764 24.5587L17.3667 24.5548C17.2693 24.508 17.1778 24.4533 17.0922 24.3947L17.0805 24.3869H17.0786L17.0708 24.3791L17.063 24.3733H17.0591L17.0493 24.3635L17.0416 24.3557L17.0338 24.3498H17.0299L17.0201 24.3381L17.0104 24.3303L17.0046 24.3245L17.0007 24.3206L16.9909 24.3127L16.9812 24.3049L16.9754 24.301L16.9715 24.2971L16.9617 24.2893L16.952 24.2815L16.9462 24.2776L16.9403 24.2737L16.9306 24.2659L16.9209 24.2561L16.917 24.2522L16.9111 24.2483L16.9014 24.2405L16.8917 24.2308L16.8878 24.2268L16.8819 24.221L16.8722 24.2112L16.8625 24.2015L16.8586 24.1976L16.8527 24.1917C16.841 24.18 16.8294 24.1683 16.8177 24.1566H16.8157L16.806 24.1449C16.6931 24.0219 16.5958 23.8813 16.5159 23.7232L16.4245 23.5416L16.2142 23.1238L15.8619 22.425L15.6263 21.9603L15.5095 21.728L15.2739 21.2634L15.0384 20.7988L14.9196 20.5665L14.8028 20.3342L14.7328 20.1975L14.6841 20.1018L14.6023 19.9418L14.5653 19.8695L14.3298 19.4029L14.0942 18.9364L13.9755 18.7041L13.8567 18.4717L13.5024 17.7729L13.3837 17.5405L13.2649 17.3082L13.1462 17.0759L13.0547 16.8944L13.0274 17.0584L13.0119 17.1501L12.9963 17.2419L12.9807 17.3336L12.9651 17.4254L12.934 17.6089L12.9184 17.7006L12.8873 17.8861L12.8717 17.9778L12.8561 18.0696L12.8406 18.1613L12.825 18.2531L12.7938 18.4386L12.7627 18.624L12.7471 18.7158L12.7315 18.8075L12.716 18.8993L12.7004 18.991L12.6848 19.0828L12.6692 19.1745L12.6537 19.2682L12.6381 19.36L12.6225 19.4518L12.6069 19.5435L12.5914 19.6353L12.5758 19.727L12.5602 19.8188L12.5447 19.9105L12.5135 20.096L12.4979 20.1877L12.4824 20.2795L12.4668 20.3712L12.4512 20.463L12.4201 20.6485L12.4045 20.7402L12.3733 20.9257L12.3578 21.0174L12.3422 21.1092L12.3266 21.2009L12.311 21.2927L12.2955 21.3844L12.2799 21.4762L12.2643 21.5679L12.2332 21.7534L12.2176 21.8452L12.202 21.9369L12.1865 22.0287L12.1709 22.1204L12.1553 22.2122L12.1397 22.3039L12.1086 22.4894L12.093 22.5811L12.0521 22.8271L12.0229 23.0067L12.0171 23.0438L12.0035 23.1375L11.9918 23.2176V23.2234V23.2332C11.9879 23.2644 11.982 23.2956 11.9762 23.3269V23.3288V23.3308V23.3347V23.3386V23.3425V23.3444V23.3464V23.3503V23.3542V23.3581V23.3601L11.9665 23.4147L11.949 23.5045C11.9314 23.5943 11.9139 23.6841 11.8944 23.772L11.875 23.8598C11.8614 23.9184 11.8477 23.975 11.8322 24.0316C11.8107 24.1156 11.7874 24.2015 11.7621 24.2835L11.7368 24.3655C11.7192 24.4201 11.7037 24.4748 11.6842 24.5275C11.6608 24.5978 11.6375 24.668 11.6122 24.7364V24.7403L11.6102 24.7442V24.7481L11.6083 24.752V24.7559L11.6024 24.7657L11.5732 24.8437C11.544 24.9218 11.5129 24.998 11.4817 25.0741L11.4506 25.1483C11.4292 25.199 11.4078 25.2478 11.3844 25.2967V25.3006V25.3045V25.3084V25.3123V25.3181V25.322L11.3786 25.3357C11.3513 25.3962 11.3221 25.4567 11.2929 25.5153C11.2696 25.5622 11.2462 25.611 11.2209 25.6578L11.1839 25.7261C11.1469 25.7964 11.1099 25.8647 11.071 25.9331L11.0321 25.9994L11.0282 26.0073V26.0112L11.0243 26.0151L10.9931 26.0678L10.9522 26.1341L10.9191 26.1908V26.1947L10.9152 26.1986V26.2025H10.9133C10.886 26.2454 10.8588 26.2884 10.8315 26.3333L10.7887 26.3977L10.7654 26.4328L10.7459 26.4621L10.7128 26.5109L10.7031 26.5246L10.6641 26.5793V26.5832V26.5871L10.6193 26.6495L10.5765 26.7081V26.7101C10.5609 26.7315 10.5434 26.753 10.5279 26.7745L10.485 26.8291L10.4383 26.8877V26.8897V26.8916H10.4364L10.4344 26.8975L10.3974 26.9443C10.3818 26.9638 10.3643 26.9814 10.3488 27.0009C10.3157 27.038 10.2826 27.0771 10.2495 27.1122V27.1142V27.1161L10.2456 27.122L10.2358 27.1317L10.2164 27.1512L10.1638 27.204V27.2059V27.2079V27.2098H10.1619V27.2118V27.2137V27.2157V27.2176L10.1599 27.2196H10.158V27.2215L10.1521 27.2293L10.1502 27.2313L10.1385 27.243V27.245V27.2469V27.2489H10.1366L10.1346 27.2528C10.1093 27.2781 10.084 27.3035 10.0587 27.3289L10.0295 27.3562C10.012 27.3738 9.99251 27.3894 9.97499 27.407V27.4089V27.4109L9.9672 27.4167L9.96331 27.4207L9.96136 27.4246L9.93021 27.4519L9.87376 27.5007C9.83677 27.5339 9.79784 27.5651 9.7589 27.5964C9.71997 27.6276 9.68103 27.6588 9.64015 27.6901L9.6382 27.692L9.63042 27.6979L9.62652 27.7018L9.62458 27.7037L9.62068 27.7076L9.61484 27.7115H9.6129C9.56423 27.7506 9.51361 27.7857 9.463 27.8209C9.44159 27.8345 9.42212 27.8501 9.40071 27.8638C9.35788 27.8931 9.317 27.9204 9.27417 27.9458H9.27222H9.27028H9.26833L9.26249 27.9497H9.2586L9.21382 27.977C9.19241 27.9907 9.17099 28.0024 9.14763 28.0161C9.10286 28.0415 9.05808 28.0668 9.01331 28.0922L9.00552 28.0961H9.00358H8.99968V28.0981H8.99774H8.99579L8.99189 28.1H8.98995H8.988H8.98605H8.98411H8.98216H8.98022H8.97827H8.97632H8.97437H8.97243L8.96269 28.1059L8.89456 28.141H8.89261H8.89067H8.88872H8.88677H8.88483H8.88288H8.88093H8.87899H8.87704H8.87509H8.87315H8.8712H8.86925H8.8673H8.86536H8.86341H8.86147H8.85952H8.85757H8.85563H8.85368C8.83032 28.1527 8.80696 28.1644 8.7836 28.1762L8.76024 28.1879L8.7544 28.1918H8.75245L8.74466 28.1957L8.73298 28.2015H8.72909H8.72714C8.69989 28.2152 8.67263 28.2269 8.64343 28.2386C8.59477 28.2601 8.5461 28.2816 8.49743 28.3011L8.4546 28.3187H8.45265H8.45071H8.44876H8.44681H8.44487H8.44292L8.43708 28.3206H8.43513L8.35921 28.3499H8.35727H8.35532H8.35337H8.35143H8.34948L8.34169 28.3538H8.33975L8.32806 28.3577C8.29108 28.3714 8.25214 28.385 8.21516 28.3987L8.18401 28.4085H8.18011L8.17622 28.4104H8.17233L8.16843 28.4124H8.16454L8.16065 28.4143H8.15675L8.15286 28.4163H8.14897L8.14507 28.4182H8.14118L8.13729 28.4202H8.13339L8.11977 28.426L8.05358 28.4475C7.97376 28.4729 7.89395 28.4963 7.81219 28.5197C7.78493 28.5276 7.75768 28.5334 7.73042 28.5412H7.72848L7.65061 28.5607C7.62335 28.5666 7.59415 28.5744 7.5669 28.5803H7.56495L7.55327 28.5842H7.55133H7.54549H7.54354H7.54159C7.46567 28.6017 7.38975 28.6174 7.31383 28.631L7.22622 28.6466C7.16782 28.6564 7.10748 28.6662 7.04713 28.6759C6.98678 28.6857 6.92448 28.6935 6.86219 28.7013H6.86024L6.77264 28.7111C6.71035 28.7169 6.6461 28.7228 6.58381 28.7286C6.55266 28.7306 6.51957 28.7325 6.48842 28.7345H6.48647H6.48258H6.48063H6.47674H6.47285H6.46895H6.46506H6.46117H6.45727H6.45338H6.44949H6.44559H6.4417H6.43975H6.43586H6.43391H6.43002H6.42807H6.42418H6.42223H6.41834H6.41639C6.3833 28.7345 6.3502 28.7384 6.31711 28.7384C6.25092 28.7403 6.18279 28.7423 6.1166 28.7442C6.01342 28.7442 5.91025 28.7442 5.80512 28.7423C5.77008 28.7423 5.73504 28.7403 5.7 28.7384H5.69611H5.69221H5.69027H5.68832H5.68443H5.68053H5.67859H5.67469H5.6708H5.66885H5.65912H5.65523H5.59488V28.7345C5.55789 28.7345 5.52285 28.7306 5.48586 28.7286C5.11599 28.7052 4.73443 28.6583 4.34314 28.5861C3.53331 28.3889 2.81497 28.0649 2.18618 27.61C1.60606 27.1922 1.12522 26.6808 0.747558 26.0756C0.393256 25.5094 0.146023 24.8965 0.00780617 24.2347C-0.0914763 23.7661 -0.128464 23.2995 -0.10705 22.8388C-0.10705 22.8056 -0.103157 22.7705 -0.10121 22.7373V22.7354V22.7315V22.7276V22.7236V22.7197V22.7158V22.7119H0.0136463V22.708V22.7041V22.7002V22.6963V22.6924V22.6885V22.6846V22.6787V22.6748V22.6709H0.0175397V22.6514C0.0214332 22.6143 0.0233799 22.5772 0.0272733 22.5401V22.5343V22.5304V22.5265H0.0311667V22.5226V22.5187V22.5148V22.5109V22.507V22.503V22.4991V22.4952V22.4913V22.4874V22.4835V22.4796V22.4757V22.4718H0.0350602V22.4679V22.464V22.4601H0.0370069V22.4562V22.4523V22.4484V22.4445H0.0389536V22.4406V22.4367V22.4328V22.4289V22.425C0.042847 22.3879 0.0486872 22.3527 0.0525806 22.3156L0.0798346 22.1438L0.109035 21.9584L0.138236 21.7729L0.167437 21.5875L0.212211 21.3083L0.241412 21.1228L0.270613 20.9374L0.286186 20.8437L0.315387 20.6582L0.344588 20.4728L0.373789 20.2873L0.402989 20.1018L0.43219 19.9164L0.461391 19.7309L0.506165 19.4518L0.535366 19.2663L0.564567 19.0808L0.593767 18.8954L0.609341 18.8017L0.638542 18.6162L0.667743 18.4308L0.696943 18.2453L0.726144 18.0598L0.770918 17.7807L0.800119 17.5952L0.82932 17.4097L0.858521 17.2243L0.874094 17.1306L0.903295 16.9451L0.932496 16.7597L0.961696 16.5742L0.990897 16.3887L1.0201 16.2033L1.06487 15.9241L1.09407 15.7387L1.12327 15.5532L1.13885 15.4595L1.16805 15.274L1.19725 15.0886L1.22645 14.9031L1.25565 14.7177L1.30042 14.4385L1.32963 14.253L1.35883 14.0676L1.38803 13.8821L1.4036 13.7904L1.41917 13.6967L1.4328 13.6049L1.462 13.4194L1.4912 13.234L1.5204 13.0485L1.5496 12.8631L1.59438 12.5839L1.62358 12.3984L1.65278 12.213L1.68198 12.0275L1.69755 11.9338L1.72676 11.7484L1.75596 11.5629L1.78516 11.3774L1.80073 11.2837L1.8163 11.192L1.8455 11.0065L1.87471 10.8211L1.91948 10.5419L1.93505 10.4482L1.94868 10.3564L1.97788 10.171L1.99346 10.0773L2.02266 9.89181L2.05186 9.70635L2.08106 9.52089L2.11026 9.33543L2.13946 9.14997L2.18423 8.8708L2.21343 8.68535L2.24263 8.49989L2.27184 8.31443L2.30104 8.12897L2.31661 8.03526L2.34581 7.8498L2.37501 7.66434L2.40421 7.47888L2.43341 7.29342L2.44899 7.19972L2.47819 7.01426L2.50739 6.8288L2.53659 6.64334L2.56579 6.45788L2.58136 6.36417L2.62614 6.08501L2.64171 5.9913L2.67091 5.80584L2.70011 5.62038L2.72931 5.43492L2.77409 5.15576L2.80329 4.9703L2.83249 4.78484L2.86169 4.59938L2.89089 4.41392L2.92009 4.22846L2.93567 4.13476L2.96487 3.9493L2.97071 3.91611H1.92921H1.92727H1.92532H1.92337H1.92143H1.91948H1.9078C1.87081 3.91611 1.83577 3.9122 1.79878 3.91025H1.79489H1.791H1.7871H1.78516H1.78321H1.78126H1.77542H1.77153H1.76764C1.74038 3.90635 1.71313 3.9044 1.68782 3.90049C1.64694 3.89463 1.60411 3.88683 1.56518 3.87902C1.4659 3.85949 1.37051 3.83021 1.27901 3.79312C1.04541 3.70332 0.831267 3.56081 0.638542 3.37144L0.630755 3.61352ZM18.7469 24.8691L18.6846 24.873C18.706 24.873 18.7274 24.873 18.7469 24.8691Z"
              fill="url(#paint0_linear_53_1398)"/>
    </g>
    <defs>
        <linearGradient id="paint0_linear_53_1398" x1="-1.09209" y1="18.7646" x2="34.4914" y2="1.45721"
                        gradientUnits="userSpaceOnUse">
            <stop stop-color="#0CABE0"/>
            <stop offset="1" stop-color="#3DBB95"/>
        </linearGradient>
        <clipPath id="clip0_53_1398">
            <rect width="156" height="29" fill="white"/>
        </clipPath>
    </defs>
</svg>
