<svg width="22" height="19" viewBox="0 0 22 19" fill="none" xmlns="http://www.w3.org/2000/svg">
<path d="M21.9022 2.61091C21.1905 2.91718 20.4423 3.13045 19.6762 3.24544C20.0344 3.18404 20.5614 2.53927 20.7713 2.2783C21.09 1.88464 21.3329 1.43525 21.4877 0.952945C21.4877 0.917125 21.5235 0.865953 21.4877 0.840367C21.4696 0.830514 21.4494 0.82535 21.4288 0.82535C21.4082 0.82535 21.388 0.830514 21.37 0.840367C20.538 1.2909 19.6526 1.63475 18.7346 1.8638C18.7026 1.87358 18.6686 1.87446 18.6361 1.86634C18.6037 1.85823 18.574 1.84143 18.5504 1.81775C18.4789 1.73267 18.402 1.65233 18.3201 1.57724C17.9457 1.24178 17.5209 0.967227 17.0613 0.763609C16.4409 0.509069 15.7707 0.398833 15.1014 0.441227C14.452 0.48224 13.818 0.656424 13.2388 0.952945C12.6684 1.26557 12.1671 1.69027 11.765 2.20154C11.3421 2.72776 11.0367 3.33846 10.8695 3.99255C10.7316 4.61473 10.716 5.25777 10.8234 5.88591C10.8234 5.99337 10.8234 6.00872 10.7313 5.99337C7.08279 5.45607 4.08923 4.16142 1.64322 1.38279C1.53576 1.25998 1.47947 1.25998 1.39248 1.38279C0.328101 2.99982 0.844936 5.55841 2.1754 6.82236C2.35451 6.99122 2.53872 7.15497 2.73318 7.30849C2.12317 7.26518 1.52805 7.09987 0.9831 6.82236C0.880756 6.75583 0.824467 6.79165 0.81935 6.91447C0.804844 7.08473 0.804844 7.25592 0.81935 7.42618C0.926123 8.24217 1.2477 9.01516 1.75119 9.6661C2.25468 10.317 2.92202 10.8226 3.68497 11.131C3.87096 11.2107 4.06476 11.2707 4.26322 11.3101C3.6985 11.4213 3.11931 11.4386 2.54896 11.3613C2.42615 11.3357 2.38009 11.4022 2.42615 11.5199C3.17837 13.5668 4.81075 14.1911 6.00818 14.5391C6.17193 14.5647 6.33568 14.5647 6.51989 14.6056C6.51989 14.6056 6.51989 14.6056 6.48919 14.6363C6.13611 15.2811 4.70841 15.716 4.05341 15.9412C2.85787 16.3706 1.5832 16.5348 0.317866 16.4222C0.118296 16.3915 0.0722413 16.3966 0.0210695 16.4222C-0.0301024 16.4478 0.0210695 16.5041 0.0773585 16.5552C0.333218 16.7241 0.589077 16.8725 0.855171 17.0158C1.64733 17.4479 2.48481 17.7911 3.35236 18.0392C7.84525 19.2776 12.901 18.3667 16.2732 15.015C18.924 12.3847 19.8553 8.75665 19.8553 5.12345C19.8553 4.98529 20.0241 4.90341 20.1214 4.83177C20.792 4.30925 21.3832 3.69217 21.8766 2.99982C21.962 2.89662 22.0058 2.76521 21.9994 2.63138C21.9994 2.55462 21.9994 2.56998 21.9022 2.61091Z" fill="#0A99D5"/>
</svg>
